<?xml version="1.0" encoding="utf-8" standalone="no"?>
<!DOCTYPE svg PUBLIC "-//W3C//DTD SVG 1.1//EN"
  "http://www.w3.org/Graphics/SVG/1.1/DTD/svg11.dtd">
<svg xmlns:xlink="http://www.w3.org/1999/xlink" width="576pt" height="360pt" viewBox="0 0 576 360" xmlns="http://www.w3.org/2000/svg" version="1.1">
 <metadata>
  <rdf:RDF xmlns:dc="http://purl.org/dc/elements/1.1/" xmlns:cc="http://creativecommons.org/ns#" xmlns:rdf="http://www.w3.org/1999/02/22-rdf-syntax-ns#">
   <cc:Work>
    <dc:type rdf:resource="http://purl.org/dc/dcmitype/StillImage"/>
    <dc:date>2026-08-07T00:02:15.356983</dc:date>
    <dc:format>image/svg+xml</dc:format>
    <dc:creator>
     <cc:Agent>
      <dc:title>Matplotlib v3.10.9, https://matplotlib.org/</dc:title>
     </cc:Agent>
    </dc:creator>
   </cc:Work>
  </rdf:RDF>
 </metadata>
 <defs>
  <style type="text/css">*{stroke-linejoin: round; stroke-linecap: butt}</style>
 </defs>
 <g id="figure_1">
  <g id="patch_1">
   <path d="M 0 360 
L 576 360 
L 576 0 
L 0 0 
z
"/>
  </g>
  <g id="axes_1">
   <g id="patch_2">
    <path d="M 52.625 318.4 
L 565.2 318.4 
L 565.2 25.8 
L 52.625 25.8 
z
"/>
   </g>
   <g id="patch_3">
    <path d="M 94.788628 318.4 
L 98.357359 318.4 
L 98.357359 315.911905 
L 94.788628 315.911905 
z
" clip-path="url(#pe3f337ca58)" style="fill: #d17a3f; fill-opacity: 0.4; stroke: #ffffff; stroke-width: 0.338182; stroke-linejoin: miter"/>
   </g>
   <g id="patch_4">
    <path d="M 98.357359 318.4 
L 101.926091 318.4 
L 101.926091 317.155952 
L 98.357359 317.155952 
z
" clip-path="url(#pe3f337ca58)" style="fill: #d17a3f; fill-opacity: 0.4; stroke: #ffffff; stroke-width: 0.338182; stroke-linejoin: miter"/>
   </g>
   <g id="patch_5">
    <path d="M 101.926091 318.4 
L 105.494822 318.4 
L 105.494822 317.902381 
L 101.926091 317.902381 
z
" clip-path="url(#pe3f337ca58)" style="fill: #d17a3f; fill-opacity: 0.4; stroke: #ffffff; stroke-width: 0.338182; stroke-linejoin: miter"/>
   </g>
   <g id="patch_6">
    <path d="M 105.494822 318.4 
L 109.063553 318.4 
L 109.063553 317.155952 
L 105.494822 317.155952 
z
" clip-path="url(#pe3f337ca58)" style="fill: #d17a3f; fill-opacity: 0.4; stroke: #ffffff; stroke-width: 0.338182; stroke-linejoin: miter"/>
   </g>
   <g id="patch_7">
    <path d="M 109.063553 318.4 
L 112.632284 318.4 
L 112.632284 318.15119 
L 109.063553 318.15119 
z
" clip-path="url(#pe3f337ca58)" style="fill: #d17a3f; fill-opacity: 0.4; stroke: #ffffff; stroke-width: 0.338182; stroke-linejoin: miter"/>
   </g>
   <g id="patch_8">
    <path d="M 112.632284 318.4 
L 116.201015 318.4 
L 116.201015 317.653571 
L 112.632284 317.653571 
z
" clip-path="url(#pe3f337ca58)" style="fill: #d17a3f; fill-opacity: 0.4; stroke: #ffffff; stroke-width: 0.338182; stroke-linejoin: miter"/>
   </g>
   <g id="patch_9">
    <path d="M 116.201015 318.4 
L 119.769747 318.4 
L 119.769747 315.911905 
L 116.201015 315.911905 
z
" clip-path="url(#pe3f337ca58)" style="fill: #d17a3f; fill-opacity: 0.4; stroke: #ffffff; stroke-width: 0.338182; stroke-linejoin: miter"/>
   </g>
   <g id="patch_10">
    <path d="M 119.769747 318.4 
L 123.338478 318.4 
L 123.338478 317.404762 
L 119.769747 317.404762 
z
" clip-path="url(#pe3f337ca58)" style="fill: #d17a3f; fill-opacity: 0.4; stroke: #ffffff; stroke-width: 0.338182; stroke-linejoin: miter"/>
   </g>
   <g id="patch_11">
    <path d="M 123.338478 318.4 
L 126.907209 318.4 
L 126.907209 317.653571 
L 123.338478 317.653571 
z
" clip-path="url(#pe3f337ca58)" style="fill: #d17a3f; fill-opacity: 0.4; stroke: #ffffff; stroke-width: 0.338182; stroke-linejoin: miter"/>
   </g>
   <g id="patch_12">
    <path d="M 126.907209 318.4 
L 130.47594 318.4 
L 130.47594 316.658333 
L 126.907209 316.658333 
z
" clip-path="url(#pe3f337ca58)" style="fill: #d17a3f; fill-opacity: 0.4; stroke: #ffffff; stroke-width: 0.338182; stroke-linejoin: miter"/>
   </g>
   <g id="patch_13">
    <path d="M 130.47594 318.4 
L 134.044671 318.4 
L 134.044671 316.409524 
L 130.47594 316.409524 
z
" clip-path="url(#pe3f337ca58)" style="fill: #d17a3f; fill-opacity: 0.4; stroke: #ffffff; stroke-width: 0.338182; stroke-linejoin: miter"/>
   </g>
   <g id="patch_14">
    <path d="M 134.044671 318.4 
L 137.613403 318.4 
L 137.613403 317.902381 
L 134.044671 317.902381 
z
" clip-path="url(#pe3f337ca58)" style="fill: #d17a3f; fill-opacity: 0.4; stroke: #ffffff; stroke-width: 0.338182; stroke-linejoin: miter"/>
   </g>
   <g id="patch_15">
    <path d="M 137.613403 318.4 
L 141.182134 318.4 
L 141.182134 314.916667 
L 137.613403 314.916667 
z
" clip-path="url(#pe3f337ca58)" style="fill: #d17a3f; fill-opacity: 0.4; stroke: #ffffff; stroke-width: 0.338182; stroke-linejoin: miter"/>
   </g>
   <g id="patch_16">
    <path d="M 141.182134 318.4 
L 144.750865 318.4 
L 144.750865 316.160714 
L 141.182134 316.160714 
z
" clip-path="url(#pe3f337ca58)" style="fill: #d17a3f; fill-opacity: 0.4; stroke: #ffffff; stroke-width: 0.338182; stroke-linejoin: miter"/>
   </g>
   <g id="patch_17">
    <path d="M 144.750865 318.4 
L 148.319596 318.4 
L 148.319596 316.409524 
L 144.750865 316.409524 
z
" clip-path="url(#pe3f337ca58)" style="fill: #d17a3f; fill-opacity: 0.4; stroke: #ffffff; stroke-width: 0.338182; stroke-linejoin: miter"/>
   </g>
   <g id="patch_18">
    <path d="M 148.319596 318.4 
L 151.888327 318.4 
L 151.888327 313.175 
L 148.319596 313.175 
z
" clip-path="url(#pe3f337ca58)" style="fill: #d17a3f; fill-opacity: 0.4; stroke: #ffffff; stroke-width: 0.338182; stroke-linejoin: miter"/>
   </g>
   <g id="patch_19">
    <path d="M 151.888327 318.4 
L 155.457058 318.4 
L 155.457058 315.165476 
L 151.888327 315.165476 
z
" clip-path="url(#pe3f337ca58)" style="fill: #d17a3f; fill-opacity: 0.4; stroke: #ffffff; stroke-width: 0.338182; stroke-linejoin: miter"/>
   </g>
   <g id="patch_20">
    <path d="M 155.457058 318.4 
L 159.02579 318.4 
L 159.02579 315.414286 
L 155.457058 315.414286 
z
" clip-path="url(#pe3f337ca58)" style="fill: #d17a3f; fill-opacity: 0.4; stroke: #ffffff; stroke-width: 0.338182; stroke-linejoin: miter"/>
   </g>
   <g id="patch_21">
    <path d="M 159.02579 318.4 
L 162.594521 318.4 
L 162.594521 311.930952 
L 159.02579 311.930952 
z
" clip-path="url(#pe3f337ca58)" style="fill: #d17a3f; fill-opacity: 0.4; stroke: #ffffff; stroke-width: 0.338182; stroke-linejoin: miter"/>
   </g>
   <g id="patch_22">
    <path d="M 162.594521 318.4 
L 166.163252 318.4 
L 166.163252 312.92619 
L 162.594521 312.92619 
z
" clip-path="url(#pe3f337ca58)" style="fill: #d17a3f; fill-opacity: 0.4; stroke: #ffffff; stroke-width: 0.338182; stroke-linejoin: miter"/>
   </g>
   <g id="patch_23">
    <path d="M 166.163252 318.4 
L 169.731983 318.4 
L 169.731983 314.916667 
L 166.163252 314.916667 
z
" clip-path="url(#pe3f337ca58)" style="fill: #d17a3f; fill-opacity: 0.4; stroke: #ffffff; stroke-width: 0.338182; stroke-linejoin: miter"/>
   </g>
   <g id="patch_24">
    <path d="M 169.731983 318.4 
L 173.300714 318.4 
L 173.300714 309.691667 
L 169.731983 309.691667 
z
" clip-path="url(#pe3f337ca58)" style="fill: #d17a3f; fill-opacity: 0.4; stroke: #ffffff; stroke-width: 0.338182; stroke-linejoin: miter"/>
   </g>
   <g id="patch_25">
    <path d="M 173.300714 318.4 
L 176.869446 318.4 
L 176.869446 311.930952 
L 173.300714 311.930952 
z
" clip-path="url(#pe3f337ca58)" style="fill: #d17a3f; fill-opacity: 0.4; stroke: #ffffff; stroke-width: 0.338182; stroke-linejoin: miter"/>
   </g>
   <g id="patch_26">
    <path d="M 176.869446 318.4 
L 180.438177 318.4 
L 180.438177 313.672619 
L 176.869446 313.672619 
z
" clip-path="url(#pe3f337ca58)" style="fill: #d17a3f; fill-opacity: 0.4; stroke: #ffffff; stroke-width: 0.338182; stroke-linejoin: miter"/>
   </g>
   <g id="patch_27">
    <path d="M 180.438177 318.4 
L 184.006908 318.4 
L 184.006908 307.70119 
L 180.438177 307.70119 
z
" clip-path="url(#pe3f337ca58)" style="fill: #d17a3f; fill-opacity: 0.4; stroke: #ffffff; stroke-width: 0.338182; stroke-linejoin: miter"/>
   </g>
   <g id="patch_28">
    <path d="M 184.006908 318.4 
L 187.575639 318.4 
L 187.575639 309.691667 
L 184.006908 309.691667 
z
" clip-path="url(#pe3f337ca58)" style="fill: #d17a3f; fill-opacity: 0.4; stroke: #ffffff; stroke-width: 0.338182; stroke-linejoin: miter"/>
   </g>
   <g id="patch_29">
    <path d="M 187.575639 318.4 
L 191.14437 318.4 
L 191.14437 309.194048 
L 187.575639 309.194048 
z
" clip-path="url(#pe3f337ca58)" style="fill: #d17a3f; fill-opacity: 0.4; stroke: #ffffff; stroke-width: 0.338182; stroke-linejoin: miter"/>
   </g>
   <g id="patch_30">
    <path d="M 191.14437 318.4 
L 194.713102 318.4 
L 194.713102 299.490476 
L 191.14437 299.490476 
z
" clip-path="url(#pe3f337ca58)" style="fill: #d17a3f; fill-opacity: 0.4; stroke: #ffffff; stroke-width: 0.338182; stroke-linejoin: miter"/>
   </g>
   <g id="patch_31">
    <path d="M 194.713102 318.4 
L 198.281833 318.4 
L 198.281833 307.203571 
L 194.713102 307.203571 
z
" clip-path="url(#pe3f337ca58)" style="fill: #d17a3f; fill-opacity: 0.4; stroke: #ffffff; stroke-width: 0.338182; stroke-linejoin: miter"/>
   </g>
   <g id="patch_32">
    <path d="M 198.281833 318.4 
L 201.850564 318.4 
L 201.850564 306.705952 
L 198.281833 306.705952 
z
" clip-path="url(#pe3f337ca58)" style="fill: #d17a3f; fill-opacity: 0.4; stroke: #ffffff; stroke-width: 0.338182; stroke-linejoin: miter"/>
   </g>
   <g id="patch_33">
    <path d="M 201.850564 318.4 
L 205.419295 318.4 
L 205.419295 297.002381 
L 201.850564 297.002381 
z
" clip-path="url(#pe3f337ca58)" style="fill: #d17a3f; fill-opacity: 0.4; stroke: #ffffff; stroke-width: 0.338182; stroke-linejoin: miter"/>
   </g>
   <g id="patch_34">
    <path d="M 205.419295 318.4 
L 208.988026 318.4 
L 208.988026 303.720238 
L 205.419295 303.720238 
z
" clip-path="url(#pe3f337ca58)" style="fill: #d17a3f; fill-opacity: 0.4; stroke: #ffffff; stroke-width: 0.338182; stroke-linejoin: miter"/>
   </g>
   <g id="patch_35">
    <path d="M 208.988026 318.4 
L 212.556758 318.4 
L 212.556758 302.227381 
L 208.988026 302.227381 
z
" clip-path="url(#pe3f337ca58)" style="fill: #d17a3f; fill-opacity: 0.4; stroke: #ffffff; stroke-width: 0.338182; stroke-linejoin: miter"/>
   </g>
   <g id="patch_36">
    <path d="M 212.556758 318.4 
L 216.125489 318.4 
L 216.125489 281.078571 
L 212.556758 281.078571 
z
" clip-path="url(#pe3f337ca58)" style="fill: #d17a3f; fill-opacity: 0.4; stroke: #ffffff; stroke-width: 0.338182; stroke-linejoin: miter"/>
   </g>
   <g id="patch_37">
    <path d="M 216.125489 318.4 
L 219.69422 318.4 
L 219.69422 292.52381 
L 216.125489 292.52381 
z
" clip-path="url(#pe3f337ca58)" style="fill: #d17a3f; fill-opacity: 0.4; stroke: #ffffff; stroke-width: 0.338182; stroke-linejoin: miter"/>
   </g>
   <g id="patch_38">
    <path d="M 219.69422 318.4 
L 223.262951 318.4 
L 223.262951 295.011905 
L 219.69422 295.011905 
z
" clip-path="url(#pe3f337ca58)" style="fill: #d17a3f; fill-opacity: 0.4; stroke: #ffffff; stroke-width: 0.338182; stroke-linejoin: miter"/>
   </g>
   <g id="patch_39">
    <path d="M 223.262951 318.4 
L 226.831682 318.4 
L 226.831682 275.355952 
L 223.262951 275.355952 
z
" clip-path="url(#pe3f337ca58)" style="fill: #d17a3f; fill-opacity: 0.4; stroke: #ffffff; stroke-width: 0.338182; stroke-linejoin: miter"/>
   </g>
   <g id="patch_40">
    <path d="M 226.831682 318.4 
L 230.400414 318.4 
L 230.400414 292.52381 
L 226.831682 292.52381 
z
" clip-path="url(#pe3f337ca58)" style="fill: #d17a3f; fill-opacity: 0.4; stroke: #ffffff; stroke-width: 0.338182; stroke-linejoin: miter"/>
   </g>
   <g id="patch_41">
    <path d="M 230.400414 318.4 
L 233.969145 318.4 
L 233.969145 289.040476 
L 230.400414 289.040476 
z
" clip-path="url(#pe3f337ca58)" style="fill: #d17a3f; fill-opacity: 0.4; stroke: #ffffff; stroke-width: 0.338182; stroke-linejoin: miter"/>
   </g>
   <g id="patch_42">
    <path d="M 233.969145 318.4 
L 237.537876 318.4 
L 237.537876 255.45119 
L 233.969145 255.45119 
z
" clip-path="url(#pe3f337ca58)" style="fill: #d17a3f; fill-opacity: 0.4; stroke: #ffffff; stroke-width: 0.338182; stroke-linejoin: miter"/>
   </g>
   <g id="patch_43">
    <path d="M 237.537876 318.4 
L 241.106607 318.4 
L 241.106607 277.595238 
L 237.537876 277.595238 
z
" clip-path="url(#pe3f337ca58)" style="fill: #d17a3f; fill-opacity: 0.4; stroke: #ffffff; stroke-width: 0.338182; stroke-linejoin: miter"/>
   </g>
   <g id="patch_44">
    <path d="M 241.106607 318.4 
L 244.675338 318.4 
L 244.675338 278.092857 
L 241.106607 278.092857 
z
" clip-path="url(#pe3f337ca58)" style="fill: #d17a3f; fill-opacity: 0.4; stroke: #ffffff; stroke-width: 0.338182; stroke-linejoin: miter"/>
   </g>
   <g id="patch_45">
    <path d="M 244.675338 318.4 
L 248.24407 318.4 
L 248.24407 233.555952 
L 244.675338 233.555952 
z
" clip-path="url(#pe3f337ca58)" style="fill: #d17a3f; fill-opacity: 0.4; stroke: #ffffff; stroke-width: 0.338182; stroke-linejoin: miter"/>
   </g>
   <g id="patch_46">
    <path d="M 248.24407 318.4 
L 251.812801 318.4 
L 251.812801 263.413095 
L 248.24407 263.413095 
z
" clip-path="url(#pe3f337ca58)" style="fill: #d17a3f; fill-opacity: 0.4; stroke: #ffffff; stroke-width: 0.338182; stroke-linejoin: miter"/>
   </g>
   <g id="patch_47">
    <path d="M 251.812801 318.4 
L 255.381532 318.4 
L 255.381532 252.216667 
L 251.812801 252.216667 
z
" clip-path="url(#pe3f337ca58)" style="fill: #d17a3f; fill-opacity: 0.4; stroke: #ffffff; stroke-width: 0.338182; stroke-linejoin: miter"/>
   </g>
   <g id="patch_48">
    <path d="M 255.381532 318.4 
L 258.950263 318.4 
L 258.950263 198.971429 
L 255.381532 198.971429 
z
" clip-path="url(#pe3f337ca58)" style="fill: #d17a3f; fill-opacity: 0.4; stroke: #ffffff; stroke-width: 0.338182; stroke-linejoin: miter"/>
   </g>
   <g id="patch_49">
    <path d="M 258.950263 318.4 
L 262.518994 318.4 
L 262.518994 237.039286 
L 258.950263 237.039286 
z
" clip-path="url(#pe3f337ca58)" style="fill: #d17a3f; fill-opacity: 0.4; stroke: #ffffff; stroke-width: 0.338182; stroke-linejoin: miter"/>
   </g>
   <g id="patch_50">
    <path d="M 262.518994 318.4 
L 266.087726 318.4 
L 266.087726 224.35 
L 262.518994 224.35 
z
" clip-path="url(#pe3f337ca58)" style="fill: #d17a3f; fill-opacity: 0.4; stroke: #ffffff; stroke-width: 0.338182; stroke-linejoin: miter"/>
   </g>
   <g id="patch_51">
    <path d="M 266.087726 318.4 
L 269.656457 318.4 
L 269.656457 159.908333 
L 266.087726 159.908333 
z
" clip-path="url(#pe3f337ca58)" style="fill: #d17a3f; fill-opacity: 0.4; stroke: #ffffff; stroke-width: 0.338182; stroke-linejoin: miter"/>
   </g>
   <g id="patch_52">
    <path d="M 269.656457 318.4 
L 273.225188 318.4 
L 273.225188 213.153571 
L 269.656457 213.153571 
z
" clip-path="url(#pe3f337ca58)" style="fill: #d17a3f; fill-opacity: 0.4; stroke: #ffffff; stroke-width: 0.338182; stroke-linejoin: miter"/>
   </g>
   <g id="patch_53">
    <path d="M 273.225188 318.4 
L 276.793919 318.4 
L 276.793919 203.69881 
L 273.225188 203.69881 
z
" clip-path="url(#pe3f337ca58)" style="fill: #d17a3f; fill-opacity: 0.4; stroke: #ffffff; stroke-width: 0.338182; stroke-linejoin: miter"/>
   </g>
   <g id="patch_54">
    <path d="M 276.793919 318.4 
L 280.36265 318.4 
L 280.36265 105.419048 
L 276.793919 105.419048 
z
" clip-path="url(#pe3f337ca58)" style="fill: #d17a3f; fill-opacity: 0.4; stroke: #ffffff; stroke-width: 0.338182; stroke-linejoin: miter"/>
   </g>
   <g id="patch_55">
    <path d="M 280.36265 318.4 
L 283.931382 318.4 
L 283.931382 165.382143 
L 280.36265 165.382143 
z
" clip-path="url(#pe3f337ca58)" style="fill: #d17a3f; fill-opacity: 0.4; stroke: #ffffff; stroke-width: 0.338182; stroke-linejoin: miter"/>
   </g>
   <g id="patch_56">
    <path d="M 283.931382 318.4 
L 287.500113 318.4 
L 287.500113 168.865476 
L 283.931382 168.865476 
z
" clip-path="url(#pe3f337ca58)" style="fill: #d17a3f; fill-opacity: 0.4; stroke: #ffffff; stroke-width: 0.338182; stroke-linejoin: miter"/>
   </g>
   <g id="patch_57">
    <path d="M 287.500113 318.4 
L 291.068844 318.4 
L 291.068844 70.585714 
L 287.500113 70.585714 
z
" clip-path="url(#pe3f337ca58)" style="fill: #d17a3f; fill-opacity: 0.4; stroke: #ffffff; stroke-width: 0.338182; stroke-linejoin: miter"/>
   </g>
   <g id="patch_58">
    <path d="M 291.068844 318.4 
L 294.637575 318.4 
L 294.637575 147.219048 
L 291.068844 147.219048 
z
" clip-path="url(#pe3f337ca58)" style="fill: #d17a3f; fill-opacity: 0.4; stroke: #ffffff; stroke-width: 0.338182; stroke-linejoin: miter"/>
   </g>
   <g id="patch_59">
    <path d="M 294.637575 318.4 
L 298.206306 318.4 
L 298.206306 165.382143 
L 294.637575 165.382143 
z
" clip-path="url(#pe3f337ca58)" style="fill: #d17a3f; fill-opacity: 0.4; stroke: #ffffff; stroke-width: 0.338182; stroke-linejoin: miter"/>
   </g>
   <g id="patch_60">
    <path d="M 298.206306 318.4 
L 301.775038 318.4 
L 301.775038 39.733333 
L 298.206306 39.733333 
z
" clip-path="url(#pe3f337ca58)" style="fill: #d17a3f; fill-opacity: 0.4; stroke: #ffffff; stroke-width: 0.338182; stroke-linejoin: miter"/>
   </g>
   <g id="patch_61">
    <path d="M 301.775038 318.4 
L 305.343769 318.4 
L 305.343769 133.534524 
L 301.775038 133.534524 
z
" clip-path="url(#pe3f337ca58)" style="fill: #d17a3f; fill-opacity: 0.4; stroke: #ffffff; stroke-width: 0.338182; stroke-linejoin: miter"/>
   </g>
   <g id="patch_62">
    <path d="M 305.343769 318.4 
L 308.9125 318.4 
L 308.9125 157.420238 
L 305.343769 157.420238 
z
" clip-path="url(#pe3f337ca58)" style="fill: #d17a3f; fill-opacity: 0.4; stroke: #ffffff; stroke-width: 0.338182; stroke-linejoin: miter"/>
   </g>
   <g id="patch_63">
    <path d="M 308.9125 318.4 
L 312.481231 318.4 
L 312.481231 56.154762 
L 308.9125 56.154762 
z
" clip-path="url(#pe3f337ca58)" style="fill: #d17a3f; fill-opacity: 0.4; stroke: #ffffff; stroke-width: 0.338182; stroke-linejoin: miter"/>
   </g>
   <g id="patch_64">
    <path d="M 312.481231 318.4 
L 316.049962 318.4 
L 316.049962 162.645238 
L 312.481231 162.645238 
z
" clip-path="url(#pe3f337ca58)" style="fill: #d17a3f; fill-opacity: 0.4; stroke: #ffffff; stroke-width: 0.338182; stroke-linejoin: miter"/>
   </g>
   <g id="patch_65">
    <path d="M 316.049962 318.4 
L 319.618694 318.4 
L 319.618694 193.995238 
L 316.049962 193.995238 
z
" clip-path="url(#pe3f337ca58)" style="fill: #d17a3f; fill-opacity: 0.4; stroke: #ffffff; stroke-width: 0.338182; stroke-linejoin: miter"/>
   </g>
   <g id="patch_66">
    <path d="M 319.618694 318.4 
L 323.187425 318.4 
L 323.187425 90.988095 
L 319.618694 90.988095 
z
" clip-path="url(#pe3f337ca58)" style="fill: #d17a3f; fill-opacity: 0.4; stroke: #ffffff; stroke-width: 0.338182; stroke-linejoin: miter"/>
   </g>
   <g id="patch_67">
    <path d="M 323.187425 318.4 
L 326.756156 318.4 
L 326.756156 203.45 
L 323.187425 203.45 
z
" clip-path="url(#pe3f337ca58)" style="fill: #d17a3f; fill-opacity: 0.4; stroke: #ffffff; stroke-width: 0.338182; stroke-linejoin: miter"/>
   </g>
   <g id="patch_68">
    <path d="M 326.756156 318.4 
L 330.324887 318.4 
L 330.324887 212.158333 
L 326.756156 212.158333 
z
" clip-path="url(#pe3f337ca58)" style="fill: #d17a3f; fill-opacity: 0.4; stroke: #ffffff; stroke-width: 0.338182; stroke-linejoin: miter"/>
   </g>
   <g id="patch_69">
    <path d="M 330.324887 318.4 
L 333.893618 318.4 
L 333.893618 168.865476 
L 330.324887 168.865476 
z
" clip-path="url(#pe3f337ca58)" style="fill: #d17a3f; fill-opacity: 0.4; stroke: #ffffff; stroke-width: 0.338182; stroke-linejoin: miter"/>
   </g>
   <g id="patch_70">
    <path d="M 333.893618 318.4 
L 337.46235 318.4 
L 337.46235 231.814286 
L 333.893618 231.814286 
z
" clip-path="url(#pe3f337ca58)" style="fill: #d17a3f; fill-opacity: 0.4; stroke: #ffffff; stroke-width: 0.338182; stroke-linejoin: miter"/>
   </g>
   <g id="patch_71">
    <path d="M 337.46235 318.4 
L 341.031081 318.4 
L 341.031081 252.216667 
L 337.46235 252.216667 
z
" clip-path="url(#pe3f337ca58)" style="fill: #d17a3f; fill-opacity: 0.4; stroke: #ffffff; stroke-width: 0.338182; stroke-linejoin: miter"/>
   </g>
   <g id="patch_72">
    <path d="M 341.031081 318.4 
L 344.599812 318.4 
L 344.599812 205.440476 
L 341.031081 205.440476 
z
" clip-path="url(#pe3f337ca58)" style="fill: #d17a3f; fill-opacity: 0.4; stroke: #ffffff; stroke-width: 0.338182; stroke-linejoin: miter"/>
   </g>
   <g id="patch_73">
    <path d="M 344.599812 318.4 
L 348.168543 318.4 
L 348.168543 263.413095 
L 344.599812 263.413095 
z
" clip-path="url(#pe3f337ca58)" style="fill: #d17a3f; fill-opacity: 0.4; stroke: #ffffff; stroke-width: 0.338182; stroke-linejoin: miter"/>
   </g>
   <g id="patch_74">
    <path d="M 348.168543 318.4 
L 351.737274 318.4 
L 351.737274 267.642857 
L 348.168543 267.642857 
z
" clip-path="url(#pe3f337ca58)" style="fill: #d17a3f; fill-opacity: 0.4; stroke: #ffffff; stroke-width: 0.338182; stroke-linejoin: miter"/>
   </g>
   <g id="patch_75">
    <path d="M 351.737274 318.4 
L 355.306006 318.4 
L 355.306006 241.517857 
L 351.737274 241.517857 
z
" clip-path="url(#pe3f337ca58)" style="fill: #d17a3f; fill-opacity: 0.4; stroke: #ffffff; stroke-width: 0.338182; stroke-linejoin: miter"/>
   </g>
   <g id="patch_76">
    <path d="M 355.306006 318.4 
L 358.874737 318.4 
L 358.874737 280.083333 
L 355.306006 280.083333 
z
" clip-path="url(#pe3f337ca58)" style="fill: #d17a3f; fill-opacity: 0.4; stroke: #ffffff; stroke-width: 0.338182; stroke-linejoin: miter"/>
   </g>
   <g id="patch_77">
    <path d="M 358.874737 318.4 
L 362.443468 318.4 
L 362.443468 289.040476 
L 358.874737 289.040476 
z
" clip-path="url(#pe3f337ca58)" style="fill: #d17a3f; fill-opacity: 0.4; stroke: #ffffff; stroke-width: 0.338182; stroke-linejoin: miter"/>
   </g>
   <g id="patch_78">
    <path d="M 362.443468 318.4 
L 366.012199 318.4 
L 366.012199 274.609524 
L 362.443468 274.609524 
z
" clip-path="url(#pe3f337ca58)" style="fill: #d17a3f; fill-opacity: 0.4; stroke: #ffffff; stroke-width: 0.338182; stroke-linejoin: miter"/>
   </g>
   <g id="patch_79">
    <path d="M 366.012199 318.4 
L 369.58093 318.4 
L 369.58093 297.002381 
L 366.012199 297.002381 
z
" clip-path="url(#pe3f337ca58)" style="fill: #d17a3f; fill-opacity: 0.4; stroke: #ffffff; stroke-width: 0.338182; stroke-linejoin: miter"/>
   </g>
   <g id="patch_80">
    <path d="M 369.58093 318.4 
L 373.149662 318.4 
L 373.149662 293.767857 
L 369.58093 293.767857 
z
" clip-path="url(#pe3f337ca58)" style="fill: #d17a3f; fill-opacity: 0.4; stroke: #ffffff; stroke-width: 0.338182; stroke-linejoin: miter"/>
   </g>
   <g id="patch_81">
    <path d="M 373.149662 318.4 
L 376.718393 318.4 
L 376.718393 288.791667 
L 373.149662 288.791667 
z
" clip-path="url(#pe3f337ca58)" style="fill: #d17a3f; fill-opacity: 0.4; stroke: #ffffff; stroke-width: 0.338182; stroke-linejoin: miter"/>
   </g>
   <g id="patch_82">
    <path d="M 376.718393 318.4 
L 380.287124 318.4 
L 380.287124 303.969048 
L 376.718393 303.969048 
z
" clip-path="url(#pe3f337ca58)" style="fill: #d17a3f; fill-opacity: 0.4; stroke: #ffffff; stroke-width: 0.338182; stroke-linejoin: miter"/>
   </g>
   <g id="patch_83">
    <path d="M 380.287124 318.4 
L 383.855855 318.4 
L 383.855855 305.461905 
L 380.287124 305.461905 
z
" clip-path="url(#pe3f337ca58)" style="fill: #d17a3f; fill-opacity: 0.4; stroke: #ffffff; stroke-width: 0.338182; stroke-linejoin: miter"/>
   </g>
   <g id="patch_84">
    <path d="M 383.855855 318.4 
L 387.424586 318.4 
L 387.424586 299.988095 
L 383.855855 299.988095 
z
" clip-path="url(#pe3f337ca58)" style="fill: #d17a3f; fill-opacity: 0.4; stroke: #ffffff; stroke-width: 0.338182; stroke-linejoin: miter"/>
   </g>
   <g id="patch_85">
    <path d="M 387.424586 318.4 
L 390.993318 318.4 
L 390.993318 307.70119 
L 387.424586 307.70119 
z
" clip-path="url(#pe3f337ca58)" style="fill: #d17a3f; fill-opacity: 0.4; stroke: #ffffff; stroke-width: 0.338182; stroke-linejoin: miter"/>
   </g>
   <g id="patch_86">
    <path d="M 390.993318 318.4 
L 394.562049 318.4 
L 394.562049 310.189286 
L 390.993318 310.189286 
z
" clip-path="url(#pe3f337ca58)" style="fill: #d17a3f; fill-opacity: 0.4; stroke: #ffffff; stroke-width: 0.338182; stroke-linejoin: miter"/>
   </g>
   <g id="patch_87">
    <path d="M 394.562049 318.4 
L 398.13078 318.4 
L 398.13078 302.97381 
L 394.562049 302.97381 
z
" clip-path="url(#pe3f337ca58)" style="fill: #d17a3f; fill-opacity: 0.4; stroke: #ffffff; stroke-width: 0.338182; stroke-linejoin: miter"/>
   </g>
   <g id="patch_88">
    <path d="M 398.13078 318.4 
L 401.699511 318.4 
L 401.699511 309.940476 
L 398.13078 309.940476 
z
" clip-path="url(#pe3f337ca58)" style="fill: #d17a3f; fill-opacity: 0.4; stroke: #ffffff; stroke-width: 0.338182; stroke-linejoin: miter"/>
   </g>
   <g id="patch_89">
    <path d="M 401.699511 318.4 
L 405.268242 318.4 
L 405.268242 312.677381 
L 401.699511 312.677381 
z
" clip-path="url(#pe3f337ca58)" style="fill: #d17a3f; fill-opacity: 0.4; stroke: #ffffff; stroke-width: 0.338182; stroke-linejoin: miter"/>
   </g>
   <g id="patch_90">
    <path d="M 405.268242 318.4 
L 408.836974 318.4 
L 408.836974 308.945238 
L 405.268242 308.945238 
z
" clip-path="url(#pe3f337ca58)" style="fill: #d17a3f; fill-opacity: 0.4; stroke: #ffffff; stroke-width: 0.338182; stroke-linejoin: miter"/>
   </g>
   <g id="patch_91">
    <path d="M 408.836974 318.4 
L 412.405705 318.4 
L 412.405705 312.677381 
L 408.836974 312.677381 
z
" clip-path="url(#pe3f337ca58)" style="fill: #d17a3f; fill-opacity: 0.4; stroke: #ffffff; stroke-width: 0.338182; stroke-linejoin: miter"/>
   </g>
   <g id="patch_92">
    <path d="M 412.405705 318.4 
L 415.974436 318.4 
L 415.974436 313.672619 
L 412.405705 313.672619 
z
" clip-path="url(#pe3f337ca58)" style="fill: #d17a3f; fill-opacity: 0.4; stroke: #ffffff; stroke-width: 0.338182; stroke-linejoin: miter"/>
   </g>
   <g id="patch_93">
    <path d="M 415.974436 318.4 
L 419.543167 318.4 
L 419.543167 312.179762 
L 415.974436 312.179762 
z
" clip-path="url(#pe3f337ca58)" style="fill: #d17a3f; fill-opacity: 0.4; stroke: #ffffff; stroke-width: 0.338182; stroke-linejoin: miter"/>
   </g>
   <g id="patch_94">
    <path d="M 419.543167 318.4 
L 423.111898 318.4 
L 423.111898 315.165476 
L 419.543167 315.165476 
z
" clip-path="url(#pe3f337ca58)" style="fill: #d17a3f; fill-opacity: 0.4; stroke: #ffffff; stroke-width: 0.338182; stroke-linejoin: miter"/>
   </g>
   <g id="patch_95">
    <path d="M 423.111898 318.4 
L 426.68063 318.4 
L 426.68063 315.911905 
L 423.111898 315.911905 
z
" clip-path="url(#pe3f337ca58)" style="fill: #d17a3f; fill-opacity: 0.4; stroke: #ffffff; stroke-width: 0.338182; stroke-linejoin: miter"/>
   </g>
   <g id="patch_96">
    <path d="M 426.68063 318.4 
L 430.249361 318.4 
L 430.249361 313.42381 
L 426.68063 313.42381 
z
" clip-path="url(#pe3f337ca58)" style="fill: #d17a3f; fill-opacity: 0.4; stroke: #ffffff; stroke-width: 0.338182; stroke-linejoin: miter"/>
   </g>
   <g id="patch_97">
    <path d="M 430.249361 318.4 
L 433.818092 318.4 
L 433.818092 315.663095 
L 430.249361 315.663095 
z
" clip-path="url(#pe3f337ca58)" style="fill: #d17a3f; fill-opacity: 0.4; stroke: #ffffff; stroke-width: 0.338182; stroke-linejoin: miter"/>
   </g>
   <g id="patch_98">
    <path d="M 433.818092 318.4 
L 437.386823 318.4 
L 437.386823 315.414286 
L 433.818092 315.414286 
z
" clip-path="url(#pe3f337ca58)" style="fill: #d17a3f; fill-opacity: 0.4; stroke: #ffffff; stroke-width: 0.338182; stroke-linejoin: miter"/>
   </g>
   <g id="patch_99">
    <path d="M 437.386823 318.4 
L 440.955554 318.4 
L 440.955554 314.667857 
L 437.386823 314.667857 
z
" clip-path="url(#pe3f337ca58)" style="fill: #d17a3f; fill-opacity: 0.4; stroke: #ffffff; stroke-width: 0.338182; stroke-linejoin: miter"/>
   </g>
   <g id="patch_100">
    <path d="M 440.955554 318.4 
L 444.524286 318.4 
L 444.524286 315.911905 
L 440.955554 315.911905 
z
" clip-path="url(#pe3f337ca58)" style="fill: #d17a3f; fill-opacity: 0.4; stroke: #ffffff; stroke-width: 0.338182; stroke-linejoin: miter"/>
   </g>
   <g id="patch_101">
    <path d="M 444.524286 318.4 
L 448.093017 318.4 
L 448.093017 317.404762 
L 444.524286 317.404762 
z
" clip-path="url(#pe3f337ca58)" style="fill: #d17a3f; fill-opacity: 0.4; stroke: #ffffff; stroke-width: 0.338182; stroke-linejoin: miter"/>
   </g>
   <g id="patch_102">
    <path d="M 448.093017 318.4 
L 451.661748 318.4 
L 451.661748 314.667857 
L 448.093017 314.667857 
z
" clip-path="url(#pe3f337ca58)" style="fill: #d17a3f; fill-opacity: 0.4; stroke: #ffffff; stroke-width: 0.338182; stroke-linejoin: miter"/>
   </g>
   <g id="patch_103">
    <path d="M 451.661748 318.4 
L 455.230479 318.4 
L 455.230479 316.658333 
L 451.661748 316.658333 
z
" clip-path="url(#pe3f337ca58)" style="fill: #d17a3f; fill-opacity: 0.4; stroke: #ffffff; stroke-width: 0.338182; stroke-linejoin: miter"/>
   </g>
   <g id="patch_104">
    <path d="M 455.230479 318.4 
L 458.79921 318.4 
L 458.79921 316.658333 
L 455.230479 316.658333 
z
" clip-path="url(#pe3f337ca58)" style="fill: #d17a3f; fill-opacity: 0.4; stroke: #ffffff; stroke-width: 0.338182; stroke-linejoin: miter"/>
   </g>
   <g id="patch_105">
    <path d="M 458.79921 318.4 
L 462.367942 318.4 
L 462.367942 316.658333 
L 458.79921 316.658333 
z
" clip-path="url(#pe3f337ca58)" style="fill: #d17a3f; fill-opacity: 0.4; stroke: #ffffff; stroke-width: 0.338182; stroke-linejoin: miter"/>
   </g>
   <g id="patch_106">
    <path d="M 462.367942 318.4 
L 465.936673 318.4 
L 465.936673 317.155952 
L 462.367942 317.155952 
z
" clip-path="url(#pe3f337ca58)" style="fill: #d17a3f; fill-opacity: 0.4; stroke: #ffffff; stroke-width: 0.338182; stroke-linejoin: miter"/>
   </g>
   <g id="patch_107">
    <path d="M 465.936673 318.4 
L 469.505404 318.4 
L 469.505404 316.907143 
L 465.936673 316.907143 
z
" clip-path="url(#pe3f337ca58)" style="fill: #d17a3f; fill-opacity: 0.4; stroke: #ffffff; stroke-width: 0.338182; stroke-linejoin: miter"/>
   </g>
   <g id="patch_108">
    <path d="M 469.505404 318.4 
L 473.074135 318.4 
L 473.074135 316.907143 
L 469.505404 316.907143 
z
" clip-path="url(#pe3f337ca58)" style="fill: #d17a3f; fill-opacity: 0.4; stroke: #ffffff; stroke-width: 0.338182; stroke-linejoin: miter"/>
   </g>
   <g id="patch_109">
    <path d="M 473.074135 318.4 
L 476.642866 318.4 
L 476.642866 317.155952 
L 473.074135 317.155952 
z
" clip-path="url(#pe3f337ca58)" style="fill: #d17a3f; fill-opacity: 0.4; stroke: #ffffff; stroke-width: 0.338182; stroke-linejoin: miter"/>
   </g>
   <g id="patch_110">
    <path d="M 476.642866 318.4 
L 480.211597 318.4 
L 480.211597 317.653571 
L 476.642866 317.653571 
z
" clip-path="url(#pe3f337ca58)" style="fill: #d17a3f; fill-opacity: 0.4; stroke: #ffffff; stroke-width: 0.338182; stroke-linejoin: miter"/>
   </g>
   <g id="patch_111">
    <path d="M 480.211597 318.4 
L 483.780329 318.4 
L 483.780329 316.907143 
L 480.211597 316.907143 
z
" clip-path="url(#pe3f337ca58)" style="fill: #d17a3f; fill-opacity: 0.4; stroke: #ffffff; stroke-width: 0.338182; stroke-linejoin: miter"/>
   </g>
   <g id="patch_112">
    <path d="M 483.780329 318.4 
L 487.34906 318.4 
L 487.34906 316.409524 
L 483.780329 316.409524 
z
" clip-path="url(#pe3f337ca58)" style="fill: #d17a3f; fill-opacity: 0.4; stroke: #ffffff; stroke-width: 0.338182; stroke-linejoin: miter"/>
   </g>
   <g id="patch_113">
    <path d="M 487.34906 318.4 
L 490.917791 318.4 
L 490.917791 317.902381 
L 487.34906 317.902381 
z
" clip-path="url(#pe3f337ca58)" style="fill: #d17a3f; fill-opacity: 0.4; stroke: #ffffff; stroke-width: 0.338182; stroke-linejoin: miter"/>
   </g>
   <g id="patch_114">
    <path d="M 490.917791 318.4 
L 494.486522 318.4 
L 494.486522 316.658333 
L 490.917791 316.658333 
z
" clip-path="url(#pe3f337ca58)" style="fill: #d17a3f; fill-opacity: 0.4; stroke: #ffffff; stroke-width: 0.338182; stroke-linejoin: miter"/>
   </g>
   <g id="patch_115">
    <path d="M 494.486522 318.4 
L 498.055253 318.4 
L 498.055253 317.653571 
L 494.486522 317.653571 
z
" clip-path="url(#pe3f337ca58)" style="fill: #d17a3f; fill-opacity: 0.4; stroke: #ffffff; stroke-width: 0.338182; stroke-linejoin: miter"/>
   </g>
   <g id="patch_116">
    <path d="M 498.055253 318.4 
L 501.623985 318.4 
L 501.623985 318.15119 
L 498.055253 318.15119 
z
" clip-path="url(#pe3f337ca58)" style="fill: #d17a3f; fill-opacity: 0.4; stroke: #ffffff; stroke-width: 0.338182; stroke-linejoin: miter"/>
   </g>
   <g id="patch_117">
    <path d="M 501.623985 318.4 
L 505.192716 318.4 
L 505.192716 316.907143 
L 501.623985 316.907143 
z
" clip-path="url(#pe3f337ca58)" style="fill: #d17a3f; fill-opacity: 0.4; stroke: #ffffff; stroke-width: 0.338182; stroke-linejoin: miter"/>
   </g>
   <g id="patch_118">
    <path d="M 505.192716 318.4 
L 508.761447 318.4 
L 508.761447 317.155952 
L 505.192716 317.155952 
z
" clip-path="url(#pe3f337ca58)" style="fill: #d17a3f; fill-opacity: 0.4; stroke: #ffffff; stroke-width: 0.338182; stroke-linejoin: miter"/>
   </g>
   <g id="patch_119">
    <path d="M 508.761447 318.4 
L 512.330178 318.4 
L 512.330178 318.15119 
L 508.761447 318.15119 
z
" clip-path="url(#pe3f337ca58)" style="fill: #d17a3f; fill-opacity: 0.4; stroke: #ffffff; stroke-width: 0.338182; stroke-linejoin: miter"/>
   </g>
   <g id="patch_120">
    <path d="M 512.330178 318.4 
L 515.898909 318.4 
L 515.898909 316.409524 
L 512.330178 316.409524 
z
" clip-path="url(#pe3f337ca58)" style="fill: #d17a3f; fill-opacity: 0.4; stroke: #ffffff; stroke-width: 0.338182; stroke-linejoin: miter"/>
   </g>
   <g id="patch_121">
    <path d="M 515.898909 318.4 
L 519.467641 318.4 
L 519.467641 317.404762 
L 515.898909 317.404762 
z
" clip-path="url(#pe3f337ca58)" style="fill: #d17a3f; fill-opacity: 0.4; stroke: #ffffff; stroke-width: 0.338182; stroke-linejoin: miter"/>
   </g>
   <g id="patch_122">
    <path d="M 519.467641 318.4 
L 523.036372 318.4 
L 523.036372 317.902381 
L 519.467641 317.902381 
z
" clip-path="url(#pe3f337ca58)" style="fill: #d17a3f; fill-opacity: 0.4; stroke: #ffffff; stroke-width: 0.338182; stroke-linejoin: miter"/>
   </g>
   <g id="matplotlib.axis_1">
    <g id="xtick_1">
     <g id="line2d_1">
      <path d="M 94.788628 318.4 
L 94.788628 25.8 
" clip-path="url(#pe3f337ca58)" style="fill: none; stroke: #ffffff; stroke-opacity: 0.3; stroke-width: 0.8; stroke-linecap: square"/>
     </g>
     <g id="line2d_2">
      <defs>
       <path id="mf1e1bd793c" d="M 0 0 
L 0 3.5 
" style="stroke: #ffffff; stroke-width: 0.8"/>
      </defs>
      <g>
       <use xlink:href="#mf1e1bd793c" x="94.788628" y="318.4" style="fill: #ffffff; stroke: #ffffff; stroke-width: 0.8"/>
      </g>
     </g>
     <g id="text_1">
      <!-- 120 -->
      <g style="fill: #ffffff" transform="translate(86.199253 332.238594) scale(0.09 -0.09)">
       <defs>
        <path id="DejaVuSans-31" d="M 794 531 
L 1825 531 
L 1825 4091 
L 703 3866 
L 703 4441 
L 1819 4666 
L 2450 4666 
L 2450 531 
L 3481 531 
L 3481 0 
L 794 0 
L 794 531 
z
" transform="scale(0.015625)"/>
        <path id="DejaVuSans-32" d="M 1228 531 
L 3431 531 
L 3431 0 
L 469 0 
L 469 531 
Q 828 903 1448 1529 
Q 2069 2156 2228 2338 
Q 2531 2678 2651 2914 
Q 2772 3150 2772 3378 
Q 2772 3750 2511 3984 
Q 2250 4219 1831 4219 
Q 1534 4219 1204 4116 
Q 875 4013 500 3803 
L 500 4441 
Q 881 4594 1212 4672 
Q 1544 4750 1819 4750 
Q 2544 4750 2975 4387 
Q 3406 4025 3406 3419 
Q 3406 3131 3298 2873 
Q 3191 2616 2906 2266 
Q 2828 2175 2409 1742 
Q 1991 1309 1228 531 
z
" transform="scale(0.015625)"/>
        <path id="DejaVuSans-30" d="M 2034 4250 
Q 1547 4250 1301 3770 
Q 1056 3291 1056 2328 
Q 1056 1369 1301 889 
Q 1547 409 2034 409 
Q 2525 409 2770 889 
Q 3016 1369 3016 2328 
Q 3016 3291 2770 3770 
Q 2525 4250 2034 4250 
z
M 2034 4750 
Q 2819 4750 3233 4129 
Q 3647 3509 3647 2328 
Q 3647 1150 3233 529 
Q 2819 -91 2034 -91 
Q 1250 -91 836 529 
Q 422 1150 422 2328 
Q 422 3509 836 4129 
Q 1250 4750 2034 4750 
z
" transform="scale(0.015625)"/>
       </defs>
       <use xlink:href="#DejaVuSans-31"/>
       <use xlink:href="#DejaVuSans-32" transform="translate(63.623047 0)"/>
       <use xlink:href="#DejaVuSans-30" transform="translate(127.246094 0)"/>
      </g>
     </g>
    </g>
    <g id="xtick_2">
     <g id="line2d_3">
      <path d="M 201.850564 318.4 
L 201.850564 25.8 
" clip-path="url(#pe3f337ca58)" style="fill: none; stroke: #ffffff; stroke-opacity: 0.3; stroke-width: 0.8; stroke-linecap: square"/>
     </g>
     <g id="line2d_4">
      <g>
       <use xlink:href="#mf1e1bd793c" x="201.850564" y="318.4" style="fill: #ffffff; stroke: #ffffff; stroke-width: 0.8"/>
      </g>
     </g>
     <g id="text_2">
      <!-- 130 -->
      <g style="fill: #ffffff" transform="translate(193.261189 332.238594) scale(0.09 -0.09)">
       <defs>
        <path id="DejaVuSans-33" d="M 2597 2516 
Q 3050 2419 3304 2112 
Q 3559 1806 3559 1356 
Q 3559 666 3084 287 
Q 2609 -91 1734 -91 
Q 1441 -91 1130 -33 
Q 819 25 488 141 
L 488 750 
Q 750 597 1062 519 
Q 1375 441 1716 441 
Q 2309 441 2620 675 
Q 2931 909 2931 1356 
Q 2931 1769 2642 2001 
Q 2353 2234 1838 2234 
L 1294 2234 
L 1294 2753 
L 1863 2753 
Q 2328 2753 2575 2939 
Q 2822 3125 2822 3475 
Q 2822 3834 2567 4026 
Q 2313 4219 1838 4219 
Q 1578 4219 1281 4162 
Q 984 4106 628 3988 
L 628 4550 
Q 988 4650 1302 4700 
Q 1616 4750 1894 4750 
Q 2613 4750 3031 4423 
Q 3450 4097 3450 3541 
Q 3450 3153 3228 2886 
Q 3006 2619 2597 2516 
z
" transform="scale(0.015625)"/>
       </defs>
       <use xlink:href="#DejaVuSans-31"/>
       <use xlink:href="#DejaVuSans-33" transform="translate(63.623047 0)"/>
       <use xlink:href="#DejaVuSans-30" transform="translate(127.246094 0)"/>
      </g>
     </g>
    </g>
    <g id="xtick_3">
     <g id="line2d_5">
      <path d="M 308.9125 318.4 
L 308.9125 25.8 
" clip-path="url(#pe3f337ca58)" style="fill: none; stroke: #ffffff; stroke-opacity: 0.3; stroke-width: 0.8; stroke-linecap: square"/>
     </g>
     <g id="line2d_6">
      <g>
       <use xlink:href="#mf1e1bd793c" x="308.9125" y="318.4" style="fill: #ffffff; stroke: #ffffff; stroke-width: 0.8"/>
      </g>
     </g>
     <g id="text_3">
      <!-- 140 -->
      <g style="fill: #ffffff" transform="translate(300.323125 332.238594) scale(0.09 -0.09)">
       <defs>
        <path id="DejaVuSans-34" d="M 2419 4116 
L 825 1625 
L 2419 1625 
L 2419 4116 
z
M 2253 4666 
L 3047 4666 
L 3047 1625 
L 3713 1625 
L 3713 1100 
L 3047 1100 
L 3047 0 
L 2419 0 
L 2419 1100 
L 313 1100 
L 313 1709 
L 2253 4666 
z
" transform="scale(0.015625)"/>
       </defs>
       <use xlink:href="#DejaVuSans-31"/>
       <use xlink:href="#DejaVuSans-34" transform="translate(63.623047 0)"/>
       <use xlink:href="#DejaVuSans-30" transform="translate(127.246094 0)"/>
      </g>
     </g>
    </g>
    <g id="xtick_4">
     <g id="line2d_7">
      <path d="M 415.974436 318.4 
L 415.974436 25.8 
" clip-path="url(#pe3f337ca58)" style="fill: none; stroke: #ffffff; stroke-opacity: 0.3; stroke-width: 0.8; stroke-linecap: square"/>
     </g>
     <g id="line2d_8">
      <g>
       <use xlink:href="#mf1e1bd793c" x="415.974436" y="318.4" style="fill: #ffffff; stroke: #ffffff; stroke-width: 0.8"/>
      </g>
     </g>
     <g id="text_4">
      <!-- 150 -->
      <g style="fill: #ffffff" transform="translate(407.385061 332.238594) scale(0.09 -0.09)">
       <defs>
        <path id="DejaVuSans-35" d="M 691 4666 
L 3169 4666 
L 3169 4134 
L 1269 4134 
L 1269 2991 
Q 1406 3038 1543 3061 
Q 1681 3084 1819 3084 
Q 2600 3084 3056 2656 
Q 3513 2228 3513 1497 
Q 3513 744 3044 326 
Q 2575 -91 1722 -91 
Q 1428 -91 1123 -41 
Q 819 9 494 109 
L 494 744 
Q 775 591 1075 516 
Q 1375 441 1709 441 
Q 2250 441 2565 725 
Q 2881 1009 2881 1497 
Q 2881 1984 2565 2268 
Q 2250 2553 1709 2553 
Q 1456 2553 1204 2497 
Q 953 2441 691 2322 
L 691 4666 
z
" transform="scale(0.015625)"/>
       </defs>
       <use xlink:href="#DejaVuSans-31"/>
       <use xlink:href="#DejaVuSans-35" transform="translate(63.623047 0)"/>
       <use xlink:href="#DejaVuSans-30" transform="translate(127.246094 0)"/>
      </g>
     </g>
    </g>
    <g id="xtick_5">
     <g id="line2d_9">
      <path d="M 523.036372 318.4 
L 523.036372 25.8 
" clip-path="url(#pe3f337ca58)" style="fill: none; stroke: #ffffff; stroke-opacity: 0.3; stroke-width: 0.8; stroke-linecap: square"/>
     </g>
     <g id="line2d_10">
      <g>
       <use xlink:href="#mf1e1bd793c" x="523.036372" y="318.4" style="fill: #ffffff; stroke: #ffffff; stroke-width: 0.8"/>
      </g>
     </g>
     <g id="text_5">
      <!-- 160 -->
      <g style="fill: #ffffff" transform="translate(514.446997 332.238594) scale(0.09 -0.09)">
       <defs>
        <path id="DejaVuSans-36" d="M 2113 2584 
Q 1688 2584 1439 2293 
Q 1191 2003 1191 1497 
Q 1191 994 1439 701 
Q 1688 409 2113 409 
Q 2538 409 2786 701 
Q 3034 994 3034 1497 
Q 3034 2003 2786 2293 
Q 2538 2584 2113 2584 
z
M 3366 4563 
L 3366 3988 
Q 3128 4100 2886 4159 
Q 2644 4219 2406 4219 
Q 1781 4219 1451 3797 
Q 1122 3375 1075 2522 
Q 1259 2794 1537 2939 
Q 1816 3084 2150 3084 
Q 2853 3084 3261 2657 
Q 3669 2231 3669 1497 
Q 3669 778 3244 343 
Q 2819 -91 2113 -91 
Q 1303 -91 875 529 
Q 447 1150 447 2328 
Q 447 3434 972 4092 
Q 1497 4750 2381 4750 
Q 2619 4750 2861 4703 
Q 3103 4656 3366 4563 
z
" transform="scale(0.015625)"/>
       </defs>
       <use xlink:href="#DejaVuSans-31"/>
       <use xlink:href="#DejaVuSans-36" transform="translate(63.623047 0)"/>
       <use xlink:href="#DejaVuSans-30" transform="translate(127.246094 0)"/>
      </g>
     </g>
    </g>
    <g id="text_6">
     <!-- Natrium+100%mean -->
     <g style="fill: #ffffff" transform="translate(250.70875 346.468594) scale(0.11 -0.11)">
      <defs>
       <path id="DejaVuSans-4e" d="M 628 4666 
L 1478 4666 
L 3547 763 
L 3547 4666 
L 4159 4666 
L 4159 0 
L 3309 0 
L 1241 3903 
L 1241 0 
L 628 0 
L 628 4666 
z
" transform="scale(0.015625)"/>
       <path id="DejaVuSans-61" d="M 2194 1759 
Q 1497 1759 1228 1600 
Q 959 1441 959 1056 
Q 959 750 1161 570 
Q 1363 391 1709 391 
Q 2188 391 2477 730 
Q 2766 1069 2766 1631 
L 2766 1759 
L 2194 1759 
z
M 3341 1997 
L 3341 0 
L 2766 0 
L 2766 531 
Q 2569 213 2275 61 
Q 1981 -91 1556 -91 
Q 1019 -91 701 211 
Q 384 513 384 1019 
Q 384 1609 779 1909 
Q 1175 2209 1959 2209 
L 2766 2209 
L 2766 2266 
Q 2766 2663 2505 2880 
Q 2244 3097 1772 3097 
Q 1472 3097 1187 3025 
Q 903 2953 641 2809 
L 641 3341 
Q 956 3463 1253 3523 
Q 1550 3584 1831 3584 
Q 2591 3584 2966 3190 
Q 3341 2797 3341 1997 
z
" transform="scale(0.015625)"/>
       <path id="DejaVuSans-74" d="M 1172 4494 
L 1172 3500 
L 2356 3500 
L 2356 3053 
L 1172 3053 
L 1172 1153 
Q 1172 725 1289 603 
Q 1406 481 1766 481 
L 2356 481 
L 2356 0 
L 1766 0 
Q 1100 0 847 248 
Q 594 497 594 1153 
L 594 3053 
L 172 3053 
L 172 3500 
L 594 3500 
L 594 4494 
L 1172 4494 
z
" transform="scale(0.015625)"/>
       <path id="DejaVuSans-72" d="M 2631 2963 
Q 2534 3019 2420 3045 
Q 2306 3072 2169 3072 
Q 1681 3072 1420 2755 
Q 1159 2438 1159 1844 
L 1159 0 
L 581 0 
L 581 3500 
L 1159 3500 
L 1159 2956 
Q 1341 3275 1631 3429 
Q 1922 3584 2338 3584 
Q 2397 3584 2469 3576 
Q 2541 3569 2628 3553 
L 2631 2963 
z
" transform="scale(0.015625)"/>
       <path id="DejaVuSans-69" d="M 603 3500 
L 1178 3500 
L 1178 0 
L 603 0 
L 603 3500 
z
M 603 4863 
L 1178 4863 
L 1178 4134 
L 603 4134 
L 603 4863 
z
" transform="scale(0.015625)"/>
       <path id="DejaVuSans-75" d="M 544 1381 
L 544 3500 
L 1119 3500 
L 1119 1403 
Q 1119 906 1312 657 
Q 1506 409 1894 409 
Q 2359 409 2629 706 
Q 2900 1003 2900 1516 
L 2900 3500 
L 3475 3500 
L 3475 0 
L 2900 0 
L 2900 538 
Q 2691 219 2414 64 
Q 2138 -91 1772 -91 
Q 1169 -91 856 284 
Q 544 659 544 1381 
z
M 1991 3584 
L 1991 3584 
z
" transform="scale(0.015625)"/>
       <path id="DejaVuSans-6d" d="M 3328 2828 
Q 3544 3216 3844 3400 
Q 4144 3584 4550 3584 
Q 5097 3584 5394 3201 
Q 5691 2819 5691 2113 
L 5691 0 
L 5113 0 
L 5113 2094 
Q 5113 2597 4934 2840 
Q 4756 3084 4391 3084 
Q 3944 3084 3684 2787 
Q 3425 2491 3425 1978 
L 3425 0 
L 2847 0 
L 2847 2094 
Q 2847 2600 2669 2842 
Q 2491 3084 2119 3084 
Q 1678 3084 1418 2786 
Q 1159 2488 1159 1978 
L 1159 0 
L 581 0 
L 581 3500 
L 1159 3500 
L 1159 2956 
Q 1356 3278 1631 3431 
Q 1906 3584 2284 3584 
Q 2666 3584 2933 3390 
Q 3200 3197 3328 2828 
z
" transform="scale(0.015625)"/>
       <path id="DejaVuSans-2b" d="M 2944 4013 
L 2944 2272 
L 4684 2272 
L 4684 1741 
L 2944 1741 
L 2944 0 
L 2419 0 
L 2419 1741 
L 678 1741 
L 678 2272 
L 2419 2272 
L 2419 4013 
L 2944 4013 
z
" transform="scale(0.015625)"/>
       <path id="DejaVuSans-25" d="M 4653 2053 
Q 4381 2053 4226 1822 
Q 4072 1591 4072 1178 
Q 4072 772 4226 539 
Q 4381 306 4653 306 
Q 4919 306 5073 539 
Q 5228 772 5228 1178 
Q 5228 1588 5073 1820 
Q 4919 2053 4653 2053 
z
M 4653 2450 
Q 5147 2450 5437 2106 
Q 5728 1763 5728 1178 
Q 5728 594 5436 251 
Q 5144 -91 4653 -91 
Q 4153 -91 3862 251 
Q 3572 594 3572 1178 
Q 3572 1766 3864 2108 
Q 4156 2450 4653 2450 
z
M 1428 4353 
Q 1159 4353 1004 4120 
Q 850 3888 850 3481 
Q 850 3069 1003 2837 
Q 1156 2606 1428 2606 
Q 1700 2606 1854 2837 
Q 2009 3069 2009 3481 
Q 2009 3884 1853 4118 
Q 1697 4353 1428 4353 
z
M 4250 4750 
L 4750 4750 
L 1831 -91 
L 1331 -91 
L 4250 4750 
z
M 1428 4750 
Q 1922 4750 2215 4408 
Q 2509 4066 2509 3481 
Q 2509 2891 2217 2550 
Q 1925 2209 1428 2209 
Q 931 2209 642 2551 
Q 353 2894 353 3481 
Q 353 4063 643 4406 
Q 934 4750 1428 4750 
z
" transform="scale(0.015625)"/>
       <path id="DejaVuSans-65" d="M 3597 1894 
L 3597 1613 
L 953 1613 
Q 991 1019 1311 708 
Q 1631 397 2203 397 
Q 2534 397 2845 478 
Q 3156 559 3463 722 
L 3463 178 
Q 3153 47 2828 -22 
Q 2503 -91 2169 -91 
Q 1331 -91 842 396 
Q 353 884 353 1716 
Q 353 2575 817 3079 
Q 1281 3584 2069 3584 
Q 2775 3584 3186 3129 
Q 3597 2675 3597 1894 
z
M 3022 2063 
Q 3016 2534 2758 2815 
Q 2500 3097 2075 3097 
Q 1594 3097 1305 2825 
Q 1016 2553 972 2059 
L 3022 2063 
z
" transform="scale(0.015625)"/>
       <path id="DejaVuSans-6e" d="M 3513 2113 
L 3513 0 
L 2938 0 
L 2938 2094 
Q 2938 2591 2744 2837 
Q 2550 3084 2163 3084 
Q 1697 3084 1428 2787 
Q 1159 2491 1159 1978 
L 1159 0 
L 581 0 
L 581 3500 
L 1159 3500 
L 1159 2956 
Q 1366 3272 1645 3428 
Q 1925 3584 2291 3584 
Q 2894 3584 3203 3211 
Q 3513 2838 3513 2113 
z
" transform="scale(0.015625)"/>
      </defs>
      <use xlink:href="#DejaVuSans-4e"/>
      <use xlink:href="#DejaVuSans-61" transform="translate(74.804688 0)"/>
      <use xlink:href="#DejaVuSans-74" transform="translate(136.083984 0)"/>
      <use xlink:href="#DejaVuSans-72" transform="translate(175.292969 0)"/>
      <use xlink:href="#DejaVuSans-69" transform="translate(216.40625 0)"/>
      <use xlink:href="#DejaVuSans-75" transform="translate(244.189453 0)"/>
      <use xlink:href="#DejaVuSans-6d" transform="translate(307.568359 0)"/>
      <use xlink:href="#DejaVuSans-2b" transform="translate(404.980469 0)"/>
      <use xlink:href="#DejaVuSans-31" transform="translate(488.769531 0)"/>
      <use xlink:href="#DejaVuSans-30" transform="translate(552.392578 0)"/>
      <use xlink:href="#DejaVuSans-30" transform="translate(616.015625 0)"/>
      <use xlink:href="#DejaVuSans-25" transform="translate(679.638672 0)"/>
      <use xlink:href="#DejaVuSans-6d" transform="translate(774.658203 0)"/>
      <use xlink:href="#DejaVuSans-65" transform="translate(872.070312 0)"/>
      <use xlink:href="#DejaVuSans-61" transform="translate(933.59375 0)"/>
      <use xlink:href="#DejaVuSans-6e" transform="translate(994.873047 0)"/>
     </g>
    </g>
   </g>
   <g id="matplotlib.axis_2">
    <g id="ytick_1">
     <g id="line2d_11">
      <path d="M 52.625 318.4 
L 565.2 318.4 
" clip-path="url(#pe3f337ca58)" style="fill: none; stroke: #ffffff; stroke-opacity: 0.3; stroke-width: 0.8; stroke-linecap: square"/>
     </g>
     <g id="line2d_12">
      <defs>
       <path id="ma6c8dc3ffa" d="M 0 0 
L -3.5 0 
" style="stroke: #ffffff; stroke-width: 0.8"/>
      </defs>
      <g>
       <use xlink:href="#ma6c8dc3ffa" x="52.625" y="318.4" style="fill: #ffffff; stroke: #ffffff; stroke-width: 0.8"/>
      </g>
     </g>
     <g id="text_7">
      <!-- 0.00 -->
      <g style="fill: #ffffff" transform="translate(25.585938 321.819297) scale(0.09 -0.09)">
       <defs>
        <path id="DejaVuSans-2e" d="M 684 794 
L 1344 794 
L 1344 0 
L 684 0 
L 684 794 
z
" transform="scale(0.015625)"/>
       </defs>
       <use xlink:href="#DejaVuSans-30"/>
       <use xlink:href="#DejaVuSans-2e" transform="translate(63.623047 0)"/>
       <use xlink:href="#DejaVuSans-30" transform="translate(95.410156 0)"/>
       <use xlink:href="#DejaVuSans-30" transform="translate(159.033203 0)"/>
      </g>
     </g>
    </g>
    <g id="ytick_2">
     <g id="line2d_13">
      <path d="M 52.625 284.661429 
L 565.2 284.661429 
" clip-path="url(#pe3f337ca58)" style="fill: none; stroke: #ffffff; stroke-opacity: 0.3; stroke-width: 0.8; stroke-linecap: square"/>
     </g>
     <g id="line2d_14">
      <g>
       <use xlink:href="#ma6c8dc3ffa" x="52.625" y="284.661429" style="fill: #ffffff; stroke: #ffffff; stroke-width: 0.8"/>
      </g>
     </g>
     <g id="text_8">
      <!-- 0.02 -->
      <g style="fill: #ffffff" transform="translate(25.585938 288.080725) scale(0.09 -0.09)">
       <use xlink:href="#DejaVuSans-30"/>
       <use xlink:href="#DejaVuSans-2e" transform="translate(63.623047 0)"/>
       <use xlink:href="#DejaVuSans-30" transform="translate(95.410156 0)"/>
       <use xlink:href="#DejaVuSans-32" transform="translate(159.033203 0)"/>
      </g>
     </g>
    </g>
    <g id="ytick_3">
     <g id="line2d_15">
      <path d="M 52.625 250.922857 
L 565.2 250.922857 
" clip-path="url(#pe3f337ca58)" style="fill: none; stroke: #ffffff; stroke-opacity: 0.3; stroke-width: 0.8; stroke-linecap: square"/>
     </g>
     <g id="line2d_16">
      <g>
       <use xlink:href="#ma6c8dc3ffa" x="52.625" y="250.922857" style="fill: #ffffff; stroke: #ffffff; stroke-width: 0.8"/>
      </g>
     </g>
     <g id="text_9">
      <!-- 0.04 -->
      <g style="fill: #ffffff" transform="translate(25.585938 254.342154) scale(0.09 -0.09)">
       <use xlink:href="#DejaVuSans-30"/>
       <use xlink:href="#DejaVuSans-2e" transform="translate(63.623047 0)"/>
       <use xlink:href="#DejaVuSans-30" transform="translate(95.410156 0)"/>
       <use xlink:href="#DejaVuSans-34" transform="translate(159.033203 0)"/>
      </g>
     </g>
    </g>
    <g id="ytick_4">
     <g id="line2d_17">
      <path d="M 52.625 217.184286 
L 565.2 217.184286 
" clip-path="url(#pe3f337ca58)" style="fill: none; stroke: #ffffff; stroke-opacity: 0.3; stroke-width: 0.8; stroke-linecap: square"/>
     </g>
     <g id="line2d_18">
      <g>
       <use xlink:href="#ma6c8dc3ffa" x="52.625" y="217.184286" style="fill: #ffffff; stroke: #ffffff; stroke-width: 0.8"/>
      </g>
     </g>
     <g id="text_10">
      <!-- 0.06 -->
      <g style="fill: #ffffff" transform="translate(25.585938 220.603583) scale(0.09 -0.09)">
       <use xlink:href="#DejaVuSans-30"/>
       <use xlink:href="#DejaVuSans-2e" transform="translate(63.623047 0)"/>
       <use xlink:href="#DejaVuSans-30" transform="translate(95.410156 0)"/>
       <use xlink:href="#DejaVuSans-36" transform="translate(159.033203 0)"/>
      </g>
     </g>
    </g>
    <g id="ytick_5">
     <g id="line2d_19">
      <path d="M 52.625 183.445714 
L 565.2 183.445714 
" clip-path="url(#pe3f337ca58)" style="fill: none; stroke: #ffffff; stroke-opacity: 0.3; stroke-width: 0.8; stroke-linecap: square"/>
     </g>
     <g id="line2d_20">
      <g>
       <use xlink:href="#ma6c8dc3ffa" x="52.625" y="183.445714" style="fill: #ffffff; stroke: #ffffff; stroke-width: 0.8"/>
      </g>
     </g>
     <g id="text_11">
      <!-- 0.08 -->
      <g style="fill: #ffffff" transform="translate(25.585938 186.865011) scale(0.09 -0.09)">
       <defs>
        <path id="DejaVuSans-38" d="M 2034 2216 
Q 1584 2216 1326 1975 
Q 1069 1734 1069 1313 
Q 1069 891 1326 650 
Q 1584 409 2034 409 
Q 2484 409 2743 651 
Q 3003 894 3003 1313 
Q 3003 1734 2745 1975 
Q 2488 2216 2034 2216 
z
M 1403 2484 
Q 997 2584 770 2862 
Q 544 3141 544 3541 
Q 544 4100 942 4425 
Q 1341 4750 2034 4750 
Q 2731 4750 3128 4425 
Q 3525 4100 3525 3541 
Q 3525 3141 3298 2862 
Q 3072 2584 2669 2484 
Q 3125 2378 3379 2068 
Q 3634 1759 3634 1313 
Q 3634 634 3220 271 
Q 2806 -91 2034 -91 
Q 1263 -91 848 271 
Q 434 634 434 1313 
Q 434 1759 690 2068 
Q 947 2378 1403 2484 
z
M 1172 3481 
Q 1172 3119 1398 2916 
Q 1625 2713 2034 2713 
Q 2441 2713 2670 2916 
Q 2900 3119 2900 3481 
Q 2900 3844 2670 4047 
Q 2441 4250 2034 4250 
Q 1625 4250 1398 4047 
Q 1172 3844 1172 3481 
z
" transform="scale(0.015625)"/>
       </defs>
       <use xlink:href="#DejaVuSans-30"/>
       <use xlink:href="#DejaVuSans-2e" transform="translate(63.623047 0)"/>
       <use xlink:href="#DejaVuSans-30" transform="translate(95.410156 0)"/>
       <use xlink:href="#DejaVuSans-38" transform="translate(159.033203 0)"/>
      </g>
     </g>
    </g>
    <g id="ytick_6">
     <g id="line2d_21">
      <path d="M 52.625 149.707143 
L 565.2 149.707143 
" clip-path="url(#pe3f337ca58)" style="fill: none; stroke: #ffffff; stroke-opacity: 0.3; stroke-width: 0.8; stroke-linecap: square"/>
     </g>
     <g id="line2d_22">
      <g>
       <use xlink:href="#ma6c8dc3ffa" x="52.625" y="149.707143" style="fill: #ffffff; stroke: #ffffff; stroke-width: 0.8"/>
      </g>
     </g>
     <g id="text_12">
      <!-- 0.10 -->
      <g style="fill: #ffffff" transform="translate(25.585938 153.12644) scale(0.09 -0.09)">
       <use xlink:href="#DejaVuSans-30"/>
       <use xlink:href="#DejaVuSans-2e" transform="translate(63.623047 0)"/>
       <use xlink:href="#DejaVuSans-31" transform="translate(95.410156 0)"/>
       <use xlink:href="#DejaVuSans-30" transform="translate(159.033203 0)"/>
      </g>
     </g>
    </g>
    <g id="ytick_7">
     <g id="line2d_23">
      <path d="M 52.625 115.968571 
L 565.2 115.968571 
" clip-path="url(#pe3f337ca58)" style="fill: none; stroke: #ffffff; stroke-opacity: 0.3; stroke-width: 0.8; stroke-linecap: square"/>
     </g>
     <g id="line2d_24">
      <g>
       <use xlink:href="#ma6c8dc3ffa" x="52.625" y="115.968571" style="fill: #ffffff; stroke: #ffffff; stroke-width: 0.8"/>
      </g>
     </g>
     <g id="text_13">
      <!-- 0.12 -->
      <g style="fill: #ffffff" transform="translate(25.585938 119.387868) scale(0.09 -0.09)">
       <use xlink:href="#DejaVuSans-30"/>
       <use xlink:href="#DejaVuSans-2e" transform="translate(63.623047 0)"/>
       <use xlink:href="#DejaVuSans-31" transform="translate(95.410156 0)"/>
       <use xlink:href="#DejaVuSans-32" transform="translate(159.033203 0)"/>
      </g>
     </g>
    </g>
    <g id="ytick_8">
     <g id="line2d_25">
      <path d="M 52.625 82.23 
L 565.2 82.23 
" clip-path="url(#pe3f337ca58)" style="fill: none; stroke: #ffffff; stroke-opacity: 0.3; stroke-width: 0.8; stroke-linecap: square"/>
     </g>
     <g id="line2d_26">
      <g>
       <use xlink:href="#ma6c8dc3ffa" x="52.625" y="82.23" style="fill: #ffffff; stroke: #ffffff; stroke-width: 0.8"/>
      </g>
     </g>
     <g id="text_14">
      <!-- 0.14 -->
      <g style="fill: #ffffff" transform="translate(25.585938 85.649297) scale(0.09 -0.09)">
       <use xlink:href="#DejaVuSans-30"/>
       <use xlink:href="#DejaVuSans-2e" transform="translate(63.623047 0)"/>
       <use xlink:href="#DejaVuSans-31" transform="translate(95.410156 0)"/>
       <use xlink:href="#DejaVuSans-34" transform="translate(159.033203 0)"/>
      </g>
     </g>
    </g>
    <g id="ytick_9">
     <g id="line2d_27">
      <path d="M 52.625 48.491429 
L 565.2 48.491429 
" clip-path="url(#pe3f337ca58)" style="fill: none; stroke: #ffffff; stroke-opacity: 0.3; stroke-width: 0.8; stroke-linecap: square"/>
     </g>
     <g id="line2d_28">
      <g>
       <use xlink:href="#ma6c8dc3ffa" x="52.625" y="48.491429" style="fill: #ffffff; stroke: #ffffff; stroke-width: 0.8"/>
      </g>
     </g>
     <g id="text_15">
      <!-- 0.16 -->
      <g style="fill: #ffffff" transform="translate(25.585938 51.910725) scale(0.09 -0.09)">
       <use xlink:href="#DejaVuSans-30"/>
       <use xlink:href="#DejaVuSans-2e" transform="translate(63.623047 0)"/>
       <use xlink:href="#DejaVuSans-31" transform="translate(95.410156 0)"/>
       <use xlink:href="#DejaVuSans-36" transform="translate(159.033203 0)"/>
      </g>
     </g>
    </g>
    <g id="text_16">
     <!-- Density -->
     <g style="fill: #ffffff" transform="translate(19.298281 193.009453) rotate(-90) scale(0.11 -0.11)">
      <defs>
       <path id="DejaVuSans-44" d="M 1259 4147 
L 1259 519 
L 2022 519 
Q 2988 519 3436 956 
Q 3884 1394 3884 2338 
Q 3884 3275 3436 3711 
Q 2988 4147 2022 4147 
L 1259 4147 
z
M 628 4666 
L 1925 4666 
Q 3281 4666 3915 4102 
Q 4550 3538 4550 2338 
Q 4550 1131 3912 565 
Q 3275 0 1925 0 
L 628 0 
L 628 4666 
z
" transform="scale(0.015625)"/>
       <path id="DejaVuSans-73" d="M 2834 3397 
L 2834 2853 
Q 2591 2978 2328 3040 
Q 2066 3103 1784 3103 
Q 1356 3103 1142 2972 
Q 928 2841 928 2578 
Q 928 2378 1081 2264 
Q 1234 2150 1697 2047 
L 1894 2003 
Q 2506 1872 2764 1633 
Q 3022 1394 3022 966 
Q 3022 478 2636 193 
Q 2250 -91 1575 -91 
Q 1294 -91 989 -36 
Q 684 19 347 128 
L 347 722 
Q 666 556 975 473 
Q 1284 391 1588 391 
Q 1994 391 2212 530 
Q 2431 669 2431 922 
Q 2431 1156 2273 1281 
Q 2116 1406 1581 1522 
L 1381 1569 
Q 847 1681 609 1914 
Q 372 2147 372 2553 
Q 372 3047 722 3315 
Q 1072 3584 1716 3584 
Q 2034 3584 2315 3537 
Q 2597 3491 2834 3397 
z
" transform="scale(0.015625)"/>
       <path id="DejaVuSans-79" d="M 2059 -325 
Q 1816 -950 1584 -1140 
Q 1353 -1331 966 -1331 
L 506 -1331 
L 506 -850 
L 844 -850 
Q 1081 -850 1212 -737 
Q 1344 -625 1503 -206 
L 1606 56 
L 191 3500 
L 800 3500 
L 1894 763 
L 2988 3500 
L 3597 3500 
L 2059 -325 
z
" transform="scale(0.015625)"/>
      </defs>
      <use xlink:href="#DejaVuSans-44"/>
      <use xlink:href="#DejaVuSans-65" transform="translate(77.001953 0)"/>
      <use xlink:href="#DejaVuSans-6e" transform="translate(138.525391 0)"/>
      <use xlink:href="#DejaVuSans-73" transform="translate(201.904297 0)"/>
      <use xlink:href="#DejaVuSans-69" transform="translate(254.003906 0)"/>
      <use xlink:href="#DejaVuSans-74" transform="translate(281.787109 0)"/>
      <use xlink:href="#DejaVuSans-79" transform="translate(320.996094 0)"/>
     </g>
    </g>
   </g>
   <g id="line2d_29">
    <path d="M 75.923864 318.395457 
L 82.948647 318.318587 
L 87.631835 318.105309 
L 96.998213 317.426514 
L 101.681401 317.369244 
L 108.706184 317.463292 
L 115.730967 317.243572 
L 122.75575 317.055082 
L 129.780533 316.893097 
L 134.463722 316.59959 
L 141.488505 315.865471 
L 150.854882 314.840561 
L 157.879665 314.022607 
L 174.270826 311.527456 
L 178.954014 310.508077 
L 181.295609 309.819231 
L 185.978797 308.110152 
L 190.661986 306.264456 
L 195.345175 304.657631 
L 200.028363 303.032466 
L 202.369958 301.970645 
L 204.711552 300.616717 
L 207.053146 298.940462 
L 211.736335 294.949354 
L 214.077929 292.95418 
L 216.419524 291.145679 
L 218.761118 289.555378 
L 223.444307 286.640157 
L 225.785901 284.955547 
L 228.127495 282.891345 
L 230.46909 280.38713 
L 232.810684 277.491413 
L 235.152278 274.29626 
L 237.493873 270.856399 
L 239.835467 267.162214 
L 242.177061 263.167205 
L 244.518656 258.81516 
L 246.86025 254.045104 
L 249.201844 248.809214 
L 251.543439 243.118139 
L 256.226627 230.760841 
L 260.909816 217.698786 
L 265.593005 204.023346 
L 267.934599 196.788808 
L 270.276193 189.098526 
L 274.959382 172.365947 
L 279.642571 155.767999 
L 281.984165 148.355994 
L 284.325759 141.759406 
L 286.667354 136.013564 
L 289.008948 131.052531 
L 291.350542 126.723869 
L 293.692137 122.905313 
L 296.033731 119.665864 
L 298.375325 117.306662 
L 300.71692 116.225084 
L 303.058514 116.73211 
L 305.400108 118.963889 
L 307.741703 122.875699 
L 310.083297 128.239697 
L 312.424892 134.670515 
L 314.766486 141.759873 
L 317.10808 149.266772 
L 319.449675 157.17775 
L 321.791269 165.562059 
L 326.474458 183.446246 
L 331.157646 201.406735 
L 333.499241 209.947465 
L 335.840835 218.014139 
L 338.182429 225.534176 
L 340.524024 232.51815 
L 342.865618 239.028943 
L 345.207212 245.127622 
L 349.890401 256.320065 
L 354.57359 266.723638 
L 356.915184 271.689249 
L 359.256778 276.354305 
L 361.598373 280.574785 
L 363.939967 284.264692 
L 366.281561 287.428541 
L 368.623156 290.15381 
L 370.96475 292.573915 
L 375.647939 296.925506 
L 377.989533 298.9025 
L 380.331127 300.691385 
L 382.672722 302.2555 
L 385.014316 303.59554 
L 387.35591 304.739816 
L 392.039099 306.602248 
L 399.063882 308.945558 
L 403.747071 310.378678 
L 408.430259 311.625788 
L 413.113448 312.68399 
L 417.796637 313.595672 
L 422.479825 314.315594 
L 427.163014 314.736661 
L 438.870986 315.411912 
L 445.895769 316.014677 
L 457.60374 316.595488 
L 466.970118 316.932689 
L 476.336495 317.128 
L 490.386061 317.239313 
L 499.752438 317.443272 
L 513.802004 317.409443 
L 520.826787 317.83447 
L 527.85157 318.233255 
L 534.876353 318.377911 
L 541.901136 318.398909 
L 541.901136 318.398909 
" clip-path="url(#pe3f337ca58)" style="fill: none; stroke: #d17a3f; stroke-width: 1.6; stroke-linecap: square"/>
   </g>
   <g id="patch_123">
    <path d="M 52.625 318.4 
L 52.625 25.8 
" style="fill: none; stroke: #ffffff; stroke-width: 0.8; stroke-linejoin: miter; stroke-linecap: square"/>
   </g>
   <g id="patch_124">
    <path d="M 52.625 318.4 
L 565.2 318.4 
" style="fill: none; stroke: #ffffff; stroke-width: 0.8; stroke-linejoin: miter; stroke-linecap: square"/>
   </g>
   <g id="text_17">
    <!-- Distribution of Natrium 100%mean -->
    <g style="fill: #ffffff" transform="translate(203.93875 19.8) scale(0.12 -0.12)">
     <defs>
      <path id="DejaVuSans-62" d="M 3116 1747 
Q 3116 2381 2855 2742 
Q 2594 3103 2138 3103 
Q 1681 3103 1420 2742 
Q 1159 2381 1159 1747 
Q 1159 1113 1420 752 
Q 1681 391 2138 391 
Q 2594 391 2855 752 
Q 3116 1113 3116 1747 
z
M 1159 2969 
Q 1341 3281 1617 3432 
Q 1894 3584 2278 3584 
Q 2916 3584 3314 3078 
Q 3713 2572 3713 1747 
Q 3713 922 3314 415 
Q 2916 -91 2278 -91 
Q 1894 -91 1617 61 
Q 1341 213 1159 525 
L 1159 0 
L 581 0 
L 581 4863 
L 1159 4863 
L 1159 2969 
z
" transform="scale(0.015625)"/>
      <path id="DejaVuSans-6f" d="M 1959 3097 
Q 1497 3097 1228 2736 
Q 959 2375 959 1747 
Q 959 1119 1226 758 
Q 1494 397 1959 397 
Q 2419 397 2687 759 
Q 2956 1122 2956 1747 
Q 2956 2369 2687 2733 
Q 2419 3097 1959 3097 
z
M 1959 3584 
Q 2709 3584 3137 3096 
Q 3566 2609 3566 1747 
Q 3566 888 3137 398 
Q 2709 -91 1959 -91 
Q 1206 -91 779 398 
Q 353 888 353 1747 
Q 353 2609 779 3096 
Q 1206 3584 1959 3584 
z
" transform="scale(0.015625)"/>
      <path id="DejaVuSans-20" transform="scale(0.015625)"/>
      <path id="DejaVuSans-66" d="M 2375 4863 
L 2375 4384 
L 1825 4384 
Q 1516 4384 1395 4259 
Q 1275 4134 1275 3809 
L 1275 3500 
L 2222 3500 
L 2222 3053 
L 1275 3053 
L 1275 0 
L 697 0 
L 697 3053 
L 147 3053 
L 147 3500 
L 697 3500 
L 697 3744 
Q 697 4328 969 4595 
Q 1241 4863 1831 4863 
L 2375 4863 
z
" transform="scale(0.015625)"/>
     </defs>
     <use xlink:href="#DejaVuSans-44"/>
     <use xlink:href="#DejaVuSans-69" transform="translate(77.001953 0)"/>
     <use xlink:href="#DejaVuSans-73" transform="translate(104.785156 0)"/>
     <use xlink:href="#DejaVuSans-74" transform="translate(156.884766 0)"/>
     <use xlink:href="#DejaVuSans-72" transform="translate(196.09375 0)"/>
     <use xlink:href="#DejaVuSans-69" transform="translate(237.207031 0)"/>
     <use xlink:href="#DejaVuSans-62" transform="translate(264.990234 0)"/>
     <use xlink:href="#DejaVuSans-75" transform="translate(328.466797 0)"/>
     <use xlink:href="#DejaVuSans-74" transform="translate(391.845703 0)"/>
     <use xlink:href="#DejaVuSans-69" transform="translate(431.054688 0)"/>
     <use xlink:href="#DejaVuSans-6f" transform="translate(458.837891 0)"/>
     <use xlink:href="#DejaVuSans-6e" transform="translate(520.019531 0)"/>
     <use xlink:href="#DejaVuSans-20" transform="translate(583.398438 0)"/>
     <use xlink:href="#DejaVuSans-6f" transform="translate(615.185547 0)"/>
     <use xlink:href="#DejaVuSans-66" transform="translate(676.367188 0)"/>
     <use xlink:href="#DejaVuSans-20" transform="translate(711.572266 0)"/>
     <use xlink:href="#DejaVuSans-4e" transform="translate(743.359375 0)"/>
     <use xlink:href="#DejaVuSans-61" transform="translate(818.164062 0)"/>
     <use xlink:href="#DejaVuSans-74" transform="translate(879.443359 0)"/>
     <use xlink:href="#DejaVuSans-72" transform="translate(918.652344 0)"/>
     <use xlink:href="#DejaVuSans-69" transform="translate(959.765625 0)"/>
     <use xlink:href="#DejaVuSans-75" transform="translate(987.548828 0)"/>
     <use xlink:href="#DejaVuSans-6d" transform="translate(1050.927734 0)"/>
     <use xlink:href="#DejaVuSans-20" transform="translate(1148.339844 0)"/>
     <use xlink:href="#DejaVuSans-31" transform="translate(1180.126953 0)"/>
     <use xlink:href="#DejaVuSans-30" transform="translate(1243.75 0)"/>
     <use xlink:href="#DejaVuSans-30" transform="translate(1307.373047 0)"/>
     <use xlink:href="#DejaVuSans-25" transform="translate(1370.996094 0)"/>
     <use xlink:href="#DejaVuSans-6d" transform="translate(1466.015625 0)"/>
     <use xlink:href="#DejaVuSans-65" transform="translate(1563.427734 0)"/>
     <use xlink:href="#DejaVuSans-61" transform="translate(1624.951172 0)"/>
     <use xlink:href="#DejaVuSans-6e" transform="translate(1686.230469 0)"/>
    </g>
   </g>
   <g id="legend_1">
    <g id="patch_125">
     <path d="M 511.057969 60.388438 
L 558.9 60.388438 
Q 560.7 60.388438 560.7 58.588437 
L 560.7 32.1 
Q 560.7 30.3 558.9 30.3 
L 511.057969 30.3 
Q 509.257969 30.3 509.257969 32.1 
L 509.257969 58.588437 
Q 509.257969 60.388438 511.057969 60.388438 
z
" style="opacity: 0.8; stroke: #cccccc; stroke-linejoin: miter"/>
    </g>
    <g id="text_18">
     <!-- Dataset -->
     <g style="fill: #ffffff" transform="translate(515.399297 41.498438) scale(0.1 -0.1)">
      <use xlink:href="#DejaVuSans-44"/>
      <use xlink:href="#DejaVuSans-61" transform="translate(77.001953 0)"/>
      <use xlink:href="#DejaVuSans-74" transform="translate(138.28125 0)"/>
      <use xlink:href="#DejaVuSans-61" transform="translate(177.490234 0)"/>
      <use xlink:href="#DejaVuSans-73" transform="translate(238.769531 0)"/>
      <use xlink:href="#DejaVuSans-65" transform="translate(290.869141 0)"/>
      <use xlink:href="#DejaVuSans-74" transform="translate(352.392578 0)"/>
     </g>
    </g>
    <g id="patch_126">
     <path d="M 512.857969 54.916719 
L 530.857969 54.916719 
L 530.857969 48.616719 
L 512.857969 48.616719 
z
" style="fill: #d17a3f; fill-opacity: 0.4; stroke: #ffffff; stroke-width: 0.338182; stroke-linejoin: miter"/>
    </g>
    <g id="text_19">
     <!-- EUH -->
     <g style="fill: #ffffff" transform="translate(538.057969 54.916719) scale(0.09 -0.09)">
      <defs>
       <path id="DejaVuSans-45" d="M 628 4666 
L 3578 4666 
L 3578 4134 
L 1259 4134 
L 1259 2753 
L 3481 2753 
L 3481 2222 
L 1259 2222 
L 1259 531 
L 3634 531 
L 3634 0 
L 628 0 
L 628 4666 
z
" transform="scale(0.015625)"/>
       <path id="DejaVuSans-55" d="M 556 4666 
L 1191 4666 
L 1191 1831 
Q 1191 1081 1462 751 
Q 1734 422 2344 422 
Q 2950 422 3222 751 
Q 3494 1081 3494 1831 
L 3494 4666 
L 4128 4666 
L 4128 1753 
Q 4128 841 3676 375 
Q 3225 -91 2344 -91 
Q 1459 -91 1007 375 
Q 556 841 556 1753 
L 556 4666 
z
" transform="scale(0.015625)"/>
       <path id="DejaVuSans-48" d="M 628 4666 
L 1259 4666 
L 1259 2753 
L 3553 2753 
L 3553 4666 
L 4184 4666 
L 4184 0 
L 3553 0 
L 3553 2222 
L 1259 2222 
L 1259 0 
L 628 0 
L 628 4666 
z
" transform="scale(0.015625)"/>
      </defs>
      <use xlink:href="#DejaVuSans-45"/>
      <use xlink:href="#DejaVuSans-55" transform="translate(63.183594 0)"/>
      <use xlink:href="#DejaVuSans-48" transform="translate(136.376953 0)"/>
     </g>
    </g>
   </g>
  </g>
 </g>
 <defs>
  <clipPath id="pe3f337ca58">
   <rect x="52.625" y="25.8" width="512.575" height="292.6"/>
  </clipPath>
 </defs>
</svg>
