<?xml version="1.0" encoding="utf-8" standalone="no"?>
<!DOCTYPE svg PUBLIC "-//W3C//DTD SVG 1.1//EN"
  "http://www.w3.org/Graphics/SVG/1.1/DTD/svg11.dtd">
<svg xmlns:xlink="http://www.w3.org/1999/xlink" width="576pt" height="360pt" viewBox="0 0 576 360" xmlns="http://www.w3.org/2000/svg" version="1.1">
 <metadata>
  <rdf:RDF xmlns:dc="http://purl.org/dc/elements/1.1/" xmlns:cc="http://creativecommons.org/ns#" xmlns:rdf="http://www.w3.org/1999/02/22-rdf-syntax-ns#">
   <cc:Work>
    <dc:type rdf:resource="http://purl.org/dc/dcmitype/StillImage"/>
    <dc:date>2026-08-07T00:02:15.485121</dc:date>
    <dc:format>image/svg+xml</dc:format>
    <dc:creator>
     <cc:Agent>
      <dc:title>Matplotlib v3.10.9, https://matplotlib.org/</dc:title>
     </cc:Agent>
    </dc:creator>
   </cc:Work>
  </rdf:RDF>
 </metadata>
 <defs>
  <style type="text/css">*{stroke-linejoin: round; stroke-linecap: butt}</style>
 </defs>
 <g id="figure_1">
  <g id="patch_1">
   <path d="M 0 360 
L 576 360 
L 576 0 
L 0 0 
z
"/>
  </g>
  <g id="axes_1">
   <g id="patch_2">
    <path d="M 64.025 318.4 
L 565.2 318.4 
L 565.2 25.8 
L 64.025 25.8 
z
"/>
   </g>
   <g id="patch_3">
    <path d="M 105.170603 318.4 
L 108.661301 318.4 
L 108.661301 317.147566 
L 105.170603 317.147566 
z
" clip-path="url(#p68b4fa2f51)" style="fill: #d17a3f; fill-opacity: 0.4; stroke: #ffffff; stroke-width: 0.338182; stroke-linejoin: miter"/>
   </g>
   <g id="patch_4">
    <path d="M 108.661301 318.4 
L 112.151999 318.4 
L 112.151999 317.147566 
L 108.661301 317.147566 
z
" clip-path="url(#p68b4fa2f51)" style="fill: #d17a3f; fill-opacity: 0.4; stroke: #ffffff; stroke-width: 0.338182; stroke-linejoin: miter"/>
   </g>
   <g id="patch_5">
    <path d="M 112.151999 318.4 
L 115.642698 318.4 
L 115.642698 316.834457 
L 112.151999 316.834457 
z
" clip-path="url(#p68b4fa2f51)" style="fill: #d17a3f; fill-opacity: 0.4; stroke: #ffffff; stroke-width: 0.338182; stroke-linejoin: miter"/>
   </g>
   <g id="patch_6">
    <path d="M 115.642698 318.4 
L 119.133396 318.4 
L 119.133396 316.834457 
L 115.642698 316.834457 
z
" clip-path="url(#p68b4fa2f51)" style="fill: #d17a3f; fill-opacity: 0.4; stroke: #ffffff; stroke-width: 0.338182; stroke-linejoin: miter"/>
   </g>
   <g id="patch_7">
    <path d="M 119.133396 318.4 
L 122.624094 318.4 
L 122.624094 315.268914 
L 119.133396 315.268914 
z
" clip-path="url(#p68b4fa2f51)" style="fill: #d17a3f; fill-opacity: 0.4; stroke: #ffffff; stroke-width: 0.338182; stroke-linejoin: miter"/>
   </g>
   <g id="patch_8">
    <path d="M 122.624094 318.4 
L 126.114793 318.4 
L 126.114793 307.754307 
L 122.624094 307.754307 
z
" clip-path="url(#p68b4fa2f51)" style="fill: #d17a3f; fill-opacity: 0.4; stroke: #ffffff; stroke-width: 0.338182; stroke-linejoin: miter"/>
   </g>
   <g id="patch_9">
    <path d="M 126.114793 318.4 
L 129.605491 318.4 
L 129.605491 306.501873 
L 126.114793 306.501873 
z
" clip-path="url(#p68b4fa2f51)" style="fill: #d17a3f; fill-opacity: 0.4; stroke: #ffffff; stroke-width: 0.338182; stroke-linejoin: miter"/>
   </g>
   <g id="patch_10">
    <path d="M 129.605491 318.4 
L 133.096189 318.4 
L 133.096189 300.2397 
L 129.605491 300.2397 
z
" clip-path="url(#p68b4fa2f51)" style="fill: #d17a3f; fill-opacity: 0.4; stroke: #ffffff; stroke-width: 0.338182; stroke-linejoin: miter"/>
   </g>
   <g id="patch_11">
    <path d="M 133.096189 318.4 
L 136.586887 318.4 
L 136.586887 301.805243 
L 133.096189 301.805243 
z
" clip-path="url(#p68b4fa2f51)" style="fill: #d17a3f; fill-opacity: 0.4; stroke: #ffffff; stroke-width: 0.338182; stroke-linejoin: miter"/>
   </g>
   <g id="patch_12">
    <path d="M 136.586887 318.4 
L 140.077586 318.4 
L 140.077586 298.987266 
L 136.586887 298.987266 
z
" clip-path="url(#p68b4fa2f51)" style="fill: #d17a3f; fill-opacity: 0.4; stroke: #ffffff; stroke-width: 0.338182; stroke-linejoin: miter"/>
   </g>
   <g id="patch_13">
    <path d="M 140.077586 318.4 
L 143.568284 318.4 
L 143.568284 292.411985 
L 140.077586 292.411985 
z
" clip-path="url(#p68b4fa2f51)" style="fill: #d17a3f; fill-opacity: 0.4; stroke: #ffffff; stroke-width: 0.338182; stroke-linejoin: miter"/>
   </g>
   <g id="patch_14">
    <path d="M 143.568284 318.4 
L 147.058982 318.4 
L 147.058982 292.725094 
L 143.568284 292.725094 
z
" clip-path="url(#p68b4fa2f51)" style="fill: #d17a3f; fill-opacity: 0.4; stroke: #ffffff; stroke-width: 0.338182; stroke-linejoin: miter"/>
   </g>
   <g id="patch_15">
    <path d="M 147.058982 318.4 
L 150.549681 318.4 
L 150.549681 288.341573 
L 147.058982 288.341573 
z
" clip-path="url(#p68b4fa2f51)" style="fill: #d17a3f; fill-opacity: 0.4; stroke: #ffffff; stroke-width: 0.338182; stroke-linejoin: miter"/>
   </g>
   <g id="patch_16">
    <path d="M 150.549681 318.4 
L 154.040379 318.4 
L 154.040379 286.462921 
L 150.549681 286.462921 
z
" clip-path="url(#p68b4fa2f51)" style="fill: #d17a3f; fill-opacity: 0.4; stroke: #ffffff; stroke-width: 0.338182; stroke-linejoin: miter"/>
   </g>
   <g id="patch_17">
    <path d="M 154.040379 318.4 
L 157.531077 318.4 
L 157.531077 280.200749 
L 154.040379 280.200749 
z
" clip-path="url(#p68b4fa2f51)" style="fill: #d17a3f; fill-opacity: 0.4; stroke: #ffffff; stroke-width: 0.338182; stroke-linejoin: miter"/>
   </g>
   <g id="patch_18">
    <path d="M 157.531077 318.4 
L 161.021775 318.4 
L 161.021775 270.494382 
L 157.531077 270.494382 
z
" clip-path="url(#p68b4fa2f51)" style="fill: #d17a3f; fill-opacity: 0.4; stroke: #ffffff; stroke-width: 0.338182; stroke-linejoin: miter"/>
   </g>
   <g id="patch_19">
    <path d="M 161.021775 318.4 
L 164.512474 318.4 
L 164.512474 272.999251 
L 161.021775 272.999251 
z
" clip-path="url(#p68b4fa2f51)" style="fill: #d17a3f; fill-opacity: 0.4; stroke: #ffffff; stroke-width: 0.338182; stroke-linejoin: miter"/>
   </g>
   <g id="patch_20">
    <path d="M 164.512474 318.4 
L 168.003172 318.4 
L 168.003172 258.596255 
L 164.512474 258.596255 
z
" clip-path="url(#p68b4fa2f51)" style="fill: #d17a3f; fill-opacity: 0.4; stroke: #ffffff; stroke-width: 0.338182; stroke-linejoin: miter"/>
   </g>
   <g id="patch_21">
    <path d="M 168.003172 318.4 
L 171.49387 318.4 
L 171.49387 233.547566 
L 168.003172 233.547566 
z
" clip-path="url(#p68b4fa2f51)" style="fill: #d17a3f; fill-opacity: 0.4; stroke: #ffffff; stroke-width: 0.338182; stroke-linejoin: miter"/>
   </g>
   <g id="patch_22">
    <path d="M 171.49387 318.4 
L 174.984569 318.4 
L 174.984569 224.780524 
L 171.49387 224.780524 
z
" clip-path="url(#p68b4fa2f51)" style="fill: #d17a3f; fill-opacity: 0.4; stroke: #ffffff; stroke-width: 0.338182; stroke-linejoin: miter"/>
   </g>
   <g id="patch_23">
    <path d="M 174.984569 318.4 
L 178.475267 318.4 
L 178.475267 217.265918 
L 174.984569 217.265918 
z
" clip-path="url(#p68b4fa2f51)" style="fill: #d17a3f; fill-opacity: 0.4; stroke: #ffffff; stroke-width: 0.338182; stroke-linejoin: miter"/>
   </g>
   <g id="patch_24">
    <path d="M 178.475267 318.4 
L 181.965965 318.4 
L 181.965965 187.207491 
L 178.475267 187.207491 
z
" clip-path="url(#p68b4fa2f51)" style="fill: #d17a3f; fill-opacity: 0.4; stroke: #ffffff; stroke-width: 0.338182; stroke-linejoin: miter"/>
   </g>
   <g id="patch_25">
    <path d="M 181.965965 318.4 
L 185.456663 318.4 
L 185.456663 156.522846 
L 181.965965 156.522846 
z
" clip-path="url(#p68b4fa2f51)" style="fill: #d17a3f; fill-opacity: 0.4; stroke: #ffffff; stroke-width: 0.338182; stroke-linejoin: miter"/>
   </g>
   <g id="patch_26">
    <path d="M 185.456663 318.4 
L 188.947362 318.4 
L 188.947362 134.292135 
L 185.456663 134.292135 
z
" clip-path="url(#p68b4fa2f51)" style="fill: #d17a3f; fill-opacity: 0.4; stroke: #ffffff; stroke-width: 0.338182; stroke-linejoin: miter"/>
   </g>
   <g id="patch_27">
    <path d="M 188.947362 318.4 
L 192.43806 318.4 
L 192.43806 106.425468 
L 188.947362 106.425468 
z
" clip-path="url(#p68b4fa2f51)" style="fill: #d17a3f; fill-opacity: 0.4; stroke: #ffffff; stroke-width: 0.338182; stroke-linejoin: miter"/>
   </g>
   <g id="patch_28">
    <path d="M 192.43806 318.4 
L 195.928758 318.4 
L 195.928758 81.06367 
L 192.43806 81.06367 
z
" clip-path="url(#p68b4fa2f51)" style="fill: #d17a3f; fill-opacity: 0.4; stroke: #ffffff; stroke-width: 0.338182; stroke-linejoin: miter"/>
   </g>
   <g id="patch_29">
    <path d="M 195.928758 318.4 
L 199.419457 318.4 
L 199.419457 63.216479 
L 195.928758 63.216479 
z
" clip-path="url(#p68b4fa2f51)" style="fill: #d17a3f; fill-opacity: 0.4; stroke: #ffffff; stroke-width: 0.338182; stroke-linejoin: miter"/>
   </g>
   <g id="patch_30">
    <path d="M 199.419457 318.4 
L 202.910155 318.4 
L 202.910155 43.490637 
L 199.419457 43.490637 
z
" clip-path="url(#p68b4fa2f51)" style="fill: #d17a3f; fill-opacity: 0.4; stroke: #ffffff; stroke-width: 0.338182; stroke-linejoin: miter"/>
   </g>
   <g id="patch_31">
    <path d="M 202.910155 318.4 
L 206.400853 318.4 
L 206.400853 39.733333 
L 202.910155 39.733333 
z
" clip-path="url(#p68b4fa2f51)" style="fill: #d17a3f; fill-opacity: 0.4; stroke: #ffffff; stroke-width: 0.338182; stroke-linejoin: miter"/>
   </g>
   <g id="patch_32">
    <path d="M 206.400853 318.4 
L 209.891551 318.4 
L 209.891551 64.155805 
L 206.400853 64.155805 
z
" clip-path="url(#p68b4fa2f51)" style="fill: #d17a3f; fill-opacity: 0.4; stroke: #ffffff; stroke-width: 0.338182; stroke-linejoin: miter"/>
   </g>
   <g id="patch_33">
    <path d="M 209.891551 318.4 
L 213.38225 318.4 
L 213.38225 50.692135 
L 209.891551 50.692135 
z
" clip-path="url(#p68b4fa2f51)" style="fill: #d17a3f; fill-opacity: 0.4; stroke: #ffffff; stroke-width: 0.338182; stroke-linejoin: miter"/>
   </g>
   <g id="patch_34">
    <path d="M 213.38225 318.4 
L 216.872948 318.4 
L 216.872948 64.468914 
L 213.38225 64.468914 
z
" clip-path="url(#p68b4fa2f51)" style="fill: #d17a3f; fill-opacity: 0.4; stroke: #ffffff; stroke-width: 0.338182; stroke-linejoin: miter"/>
   </g>
   <g id="patch_35">
    <path d="M 216.872948 318.4 
L 220.363646 318.4 
L 220.363646 73.549064 
L 216.872948 73.549064 
z
" clip-path="url(#p68b4fa2f51)" style="fill: #d17a3f; fill-opacity: 0.4; stroke: #ffffff; stroke-width: 0.338182; stroke-linejoin: miter"/>
   </g>
   <g id="patch_36">
    <path d="M 220.363646 318.4 
L 223.854345 318.4 
L 223.854345 63.529588 
L 220.363646 63.529588 
z
" clip-path="url(#p68b4fa2f51)" style="fill: #d17a3f; fill-opacity: 0.4; stroke: #ffffff; stroke-width: 0.338182; stroke-linejoin: miter"/>
   </g>
   <g id="patch_37">
    <path d="M 223.854345 318.4 
L 227.345043 318.4 
L 227.345043 88.578277 
L 223.854345 88.578277 
z
" clip-path="url(#p68b4fa2f51)" style="fill: #d17a3f; fill-opacity: 0.4; stroke: #ffffff; stroke-width: 0.338182; stroke-linejoin: miter"/>
   </g>
   <g id="patch_38">
    <path d="M 227.345043 318.4 
L 230.835741 318.4 
L 230.835741 97.345318 
L 227.345043 97.345318 
z
" clip-path="url(#p68b4fa2f51)" style="fill: #d17a3f; fill-opacity: 0.4; stroke: #ffffff; stroke-width: 0.338182; stroke-linejoin: miter"/>
   </g>
   <g id="patch_39">
    <path d="M 230.835741 318.4 
L 234.326439 318.4 
L 234.326439 133.979026 
L 230.835741 133.979026 
z
" clip-path="url(#p68b4fa2f51)" style="fill: #d17a3f; fill-opacity: 0.4; stroke: #ffffff; stroke-width: 0.338182; stroke-linejoin: miter"/>
   </g>
   <g id="patch_40">
    <path d="M 234.326439 318.4 
L 237.817138 318.4 
L 237.817138 135.544569 
L 234.326439 135.544569 
z
" clip-path="url(#p68b4fa2f51)" style="fill: #d17a3f; fill-opacity: 0.4; stroke: #ffffff; stroke-width: 0.338182; stroke-linejoin: miter"/>
   </g>
   <g id="patch_41">
    <path d="M 237.817138 318.4 
L 241.307836 318.4 
L 241.307836 131.474157 
L 237.817138 131.474157 
z
" clip-path="url(#p68b4fa2f51)" style="fill: #d17a3f; fill-opacity: 0.4; stroke: #ffffff; stroke-width: 0.338182; stroke-linejoin: miter"/>
   </g>
   <g id="patch_42">
    <path d="M 241.307836 318.4 
L 244.798534 318.4 
L 244.798534 173.430712 
L 241.307836 173.430712 
z
" clip-path="url(#p68b4fa2f51)" style="fill: #d17a3f; fill-opacity: 0.4; stroke: #ffffff; stroke-width: 0.338182; stroke-linejoin: miter"/>
   </g>
   <g id="patch_43">
    <path d="M 244.798534 318.4 
L 248.289233 318.4 
L 248.289233 186.581273 
L 244.798534 186.581273 
z
" clip-path="url(#p68b4fa2f51)" style="fill: #d17a3f; fill-opacity: 0.4; stroke: #ffffff; stroke-width: 0.338182; stroke-linejoin: miter"/>
   </g>
   <g id="patch_44">
    <path d="M 248.289233 318.4 
L 251.779931 318.4 
L 251.779931 179.066667 
L 248.289233 179.066667 
z
" clip-path="url(#p68b4fa2f51)" style="fill: #d17a3f; fill-opacity: 0.4; stroke: #ffffff; stroke-width: 0.338182; stroke-linejoin: miter"/>
   </g>
   <g id="patch_45">
    <path d="M 251.779931 318.4 
L 255.270629 318.4 
L 255.270629 187.833708 
L 251.779931 187.833708 
z
" clip-path="url(#p68b4fa2f51)" style="fill: #d17a3f; fill-opacity: 0.4; stroke: #ffffff; stroke-width: 0.338182; stroke-linejoin: miter"/>
   </g>
   <g id="patch_46">
    <path d="M 255.270629 318.4 
L 258.761327 318.4 
L 258.761327 207.559551 
L 255.270629 207.559551 
z
" clip-path="url(#p68b4fa2f51)" style="fill: #d17a3f; fill-opacity: 0.4; stroke: #ffffff; stroke-width: 0.338182; stroke-linejoin: miter"/>
   </g>
   <g id="patch_47">
    <path d="M 258.761327 318.4 
L 262.252026 318.4 
L 262.252026 221.33633 
L 258.761327 221.33633 
z
" clip-path="url(#p68b4fa2f51)" style="fill: #d17a3f; fill-opacity: 0.4; stroke: #ffffff; stroke-width: 0.338182; stroke-linejoin: miter"/>
   </g>
   <g id="patch_48">
    <path d="M 262.252026 318.4 
L 265.742724 318.4 
L 265.742724 231.042697 
L 262.252026 231.042697 
z
" clip-path="url(#p68b4fa2f51)" style="fill: #d17a3f; fill-opacity: 0.4; stroke: #ffffff; stroke-width: 0.338182; stroke-linejoin: miter"/>
   </g>
   <g id="patch_49">
    <path d="M 265.742724 318.4 
L 269.233422 318.4 
L 269.233422 236.365543 
L 265.742724 236.365543 
z
" clip-path="url(#p68b4fa2f51)" style="fill: #d17a3f; fill-opacity: 0.4; stroke: #ffffff; stroke-width: 0.338182; stroke-linejoin: miter"/>
   </g>
   <g id="patch_50">
    <path d="M 269.233422 318.4 
L 272.724121 318.4 
L 272.724121 245.445693 
L 269.233422 245.445693 
z
" clip-path="url(#p68b4fa2f51)" style="fill: #d17a3f; fill-opacity: 0.4; stroke: #ffffff; stroke-width: 0.338182; stroke-linejoin: miter"/>
   </g>
   <g id="patch_51">
    <path d="M 272.724121 318.4 
L 276.214819 318.4 
L 276.214819 263.919101 
L 272.724121 263.919101 
z
" clip-path="url(#p68b4fa2f51)" style="fill: #d17a3f; fill-opacity: 0.4; stroke: #ffffff; stroke-width: 0.338182; stroke-linejoin: miter"/>
   </g>
   <g id="patch_52">
    <path d="M 276.214819 318.4 
L 279.705517 318.4 
L 279.705517 253.899625 
L 276.214819 253.899625 
z
" clip-path="url(#p68b4fa2f51)" style="fill: #d17a3f; fill-opacity: 0.4; stroke: #ffffff; stroke-width: 0.338182; stroke-linejoin: miter"/>
   </g>
   <g id="patch_53">
    <path d="M 279.705517 318.4 
L 283.196215 318.4 
L 283.196215 266.737079 
L 279.705517 266.737079 
z
" clip-path="url(#p68b4fa2f51)" style="fill: #d17a3f; fill-opacity: 0.4; stroke: #ffffff; stroke-width: 0.338182; stroke-linejoin: miter"/>
   </g>
   <g id="patch_54">
    <path d="M 283.196215 318.4 
L 286.686914 318.4 
L 286.686914 277.69588 
L 283.196215 277.69588 
z
" clip-path="url(#p68b4fa2f51)" style="fill: #d17a3f; fill-opacity: 0.4; stroke: #ffffff; stroke-width: 0.338182; stroke-linejoin: miter"/>
   </g>
   <g id="patch_55">
    <path d="M 286.686914 318.4 
L 290.177612 318.4 
L 290.177612 278.322097 
L 286.686914 278.322097 
z
" clip-path="url(#p68b4fa2f51)" style="fill: #d17a3f; fill-opacity: 0.4; stroke: #ffffff; stroke-width: 0.338182; stroke-linejoin: miter"/>
   </g>
   <g id="patch_56">
    <path d="M 290.177612 318.4 
L 293.66831 318.4 
L 293.66831 282.705618 
L 290.177612 282.705618 
z
" clip-path="url(#p68b4fa2f51)" style="fill: #d17a3f; fill-opacity: 0.4; stroke: #ffffff; stroke-width: 0.338182; stroke-linejoin: miter"/>
   </g>
   <g id="patch_57">
    <path d="M 293.66831 318.4 
L 297.159009 318.4 
L 297.159009 287.402247 
L 293.66831 287.402247 
z
" clip-path="url(#p68b4fa2f51)" style="fill: #d17a3f; fill-opacity: 0.4; stroke: #ffffff; stroke-width: 0.338182; stroke-linejoin: miter"/>
   </g>
   <g id="patch_58">
    <path d="M 297.159009 318.4 
L 300.649707 318.4 
L 300.649707 282.705618 
L 297.159009 282.705618 
z
" clip-path="url(#p68b4fa2f51)" style="fill: #d17a3f; fill-opacity: 0.4; stroke: #ffffff; stroke-width: 0.338182; stroke-linejoin: miter"/>
   </g>
   <g id="patch_59">
    <path d="M 300.649707 318.4 
L 304.140405 318.4 
L 304.140405 292.098876 
L 300.649707 292.098876 
z
" clip-path="url(#p68b4fa2f51)" style="fill: #d17a3f; fill-opacity: 0.4; stroke: #ffffff; stroke-width: 0.338182; stroke-linejoin: miter"/>
   </g>
   <g id="patch_60">
    <path d="M 304.140405 318.4 
L 307.631103 318.4 
L 307.631103 294.290637 
L 304.140405 294.290637 
z
" clip-path="url(#p68b4fa2f51)" style="fill: #d17a3f; fill-opacity: 0.4; stroke: #ffffff; stroke-width: 0.338182; stroke-linejoin: miter"/>
   </g>
   <g id="patch_61">
    <path d="M 307.631103 318.4 
L 311.121802 318.4 
L 311.121802 291.159551 
L 307.631103 291.159551 
z
" clip-path="url(#p68b4fa2f51)" style="fill: #d17a3f; fill-opacity: 0.4; stroke: #ffffff; stroke-width: 0.338182; stroke-linejoin: miter"/>
   </g>
   <g id="patch_62">
    <path d="M 311.121802 318.4 
L 314.6125 318.4 
L 314.6125 293.664419 
L 311.121802 293.664419 
z
" clip-path="url(#p68b4fa2f51)" style="fill: #d17a3f; fill-opacity: 0.4; stroke: #ffffff; stroke-width: 0.338182; stroke-linejoin: miter"/>
   </g>
   <g id="patch_63">
    <path d="M 314.6125 318.4 
L 318.103198 318.4 
L 318.103198 297.734831 
L 314.6125 297.734831 
z
" clip-path="url(#p68b4fa2f51)" style="fill: #d17a3f; fill-opacity: 0.4; stroke: #ffffff; stroke-width: 0.338182; stroke-linejoin: miter"/>
   </g>
   <g id="patch_64">
    <path d="M 318.103198 318.4 
L 321.593897 318.4 
L 321.593897 301.805243 
L 318.103198 301.805243 
z
" clip-path="url(#p68b4fa2f51)" style="fill: #d17a3f; fill-opacity: 0.4; stroke: #ffffff; stroke-width: 0.338182; stroke-linejoin: miter"/>
   </g>
   <g id="patch_65">
    <path d="M 321.593897 318.4 
L 325.084595 318.4 
L 325.084595 303.997004 
L 321.593897 303.997004 
z
" clip-path="url(#p68b4fa2f51)" style="fill: #d17a3f; fill-opacity: 0.4; stroke: #ffffff; stroke-width: 0.338182; stroke-linejoin: miter"/>
   </g>
   <g id="patch_66">
    <path d="M 325.084595 318.4 
L 328.575293 318.4 
L 328.575293 302.744569 
L 325.084595 302.744569 
z
" clip-path="url(#p68b4fa2f51)" style="fill: #d17a3f; fill-opacity: 0.4; stroke: #ffffff; stroke-width: 0.338182; stroke-linejoin: miter"/>
   </g>
   <g id="patch_67">
    <path d="M 328.575293 318.4 
L 332.065991 318.4 
L 332.065991 307.754307 
L 328.575293 307.754307 
z
" clip-path="url(#p68b4fa2f51)" style="fill: #d17a3f; fill-opacity: 0.4; stroke: #ffffff; stroke-width: 0.338182; stroke-linejoin: miter"/>
   </g>
   <g id="patch_68">
    <path d="M 332.065991 318.4 
L 335.55669 318.4 
L 335.55669 305.562547 
L 332.065991 305.562547 
z
" clip-path="url(#p68b4fa2f51)" style="fill: #d17a3f; fill-opacity: 0.4; stroke: #ffffff; stroke-width: 0.338182; stroke-linejoin: miter"/>
   </g>
   <g id="patch_69">
    <path d="M 335.55669 318.4 
L 339.047388 318.4 
L 339.047388 307.12809 
L 335.55669 307.12809 
z
" clip-path="url(#p68b4fa2f51)" style="fill: #d17a3f; fill-opacity: 0.4; stroke: #ffffff; stroke-width: 0.338182; stroke-linejoin: miter"/>
   </g>
   <g id="patch_70">
    <path d="M 339.047388 318.4 
L 342.538086 318.4 
L 342.538086 306.814981 
L 339.047388 306.814981 
z
" clip-path="url(#p68b4fa2f51)" style="fill: #d17a3f; fill-opacity: 0.4; stroke: #ffffff; stroke-width: 0.338182; stroke-linejoin: miter"/>
   </g>
   <g id="patch_71">
    <path d="M 342.538086 318.4 
L 346.028785 318.4 
L 346.028785 308.693633 
L 342.538086 308.693633 
z
" clip-path="url(#p68b4fa2f51)" style="fill: #d17a3f; fill-opacity: 0.4; stroke: #ffffff; stroke-width: 0.338182; stroke-linejoin: miter"/>
   </g>
   <g id="patch_72">
    <path d="M 346.028785 318.4 
L 349.519483 318.4 
L 349.519483 306.188764 
L 346.028785 306.188764 
z
" clip-path="url(#p68b4fa2f51)" style="fill: #d17a3f; fill-opacity: 0.4; stroke: #ffffff; stroke-width: 0.338182; stroke-linejoin: miter"/>
   </g>
   <g id="patch_73">
    <path d="M 349.519483 318.4 
L 353.010181 318.4 
L 353.010181 312.137828 
L 349.519483 312.137828 
z
" clip-path="url(#p68b4fa2f51)" style="fill: #d17a3f; fill-opacity: 0.4; stroke: #ffffff; stroke-width: 0.338182; stroke-linejoin: miter"/>
   </g>
   <g id="patch_74">
    <path d="M 353.010181 318.4 
L 356.500879 318.4 
L 356.500879 310.885393 
L 353.010181 310.885393 
z
" clip-path="url(#p68b4fa2f51)" style="fill: #d17a3f; fill-opacity: 0.4; stroke: #ffffff; stroke-width: 0.338182; stroke-linejoin: miter"/>
   </g>
   <g id="patch_75">
    <path d="M 356.500879 318.4 
L 359.991578 318.4 
L 359.991578 312.450936 
L 356.500879 312.450936 
z
" clip-path="url(#p68b4fa2f51)" style="fill: #d17a3f; fill-opacity: 0.4; stroke: #ffffff; stroke-width: 0.338182; stroke-linejoin: miter"/>
   </g>
   <g id="patch_76">
    <path d="M 359.991578 318.4 
L 363.482276 318.4 
L 363.482276 310.885393 
L 359.991578 310.885393 
z
" clip-path="url(#p68b4fa2f51)" style="fill: #d17a3f; fill-opacity: 0.4; stroke: #ffffff; stroke-width: 0.338182; stroke-linejoin: miter"/>
   </g>
   <g id="patch_77">
    <path d="M 363.482276 318.4 
L 366.972974 318.4 
L 366.972974 311.824719 
L 363.482276 311.824719 
z
" clip-path="url(#p68b4fa2f51)" style="fill: #d17a3f; fill-opacity: 0.4; stroke: #ffffff; stroke-width: 0.338182; stroke-linejoin: miter"/>
   </g>
   <g id="patch_78">
    <path d="M 366.972974 318.4 
L 370.463673 318.4 
L 370.463673 314.329588 
L 366.972974 314.329588 
z
" clip-path="url(#p68b4fa2f51)" style="fill: #d17a3f; fill-opacity: 0.4; stroke: #ffffff; stroke-width: 0.338182; stroke-linejoin: miter"/>
   </g>
   <g id="patch_79">
    <path d="M 370.463673 318.4 
L 373.954371 318.4 
L 373.954371 312.764045 
L 370.463673 312.764045 
z
" clip-path="url(#p68b4fa2f51)" style="fill: #d17a3f; fill-opacity: 0.4; stroke: #ffffff; stroke-width: 0.338182; stroke-linejoin: miter"/>
   </g>
   <g id="patch_80">
    <path d="M 373.954371 318.4 
L 377.445069 318.4 
L 377.445069 313.703371 
L 373.954371 313.703371 
z
" clip-path="url(#p68b4fa2f51)" style="fill: #d17a3f; fill-opacity: 0.4; stroke: #ffffff; stroke-width: 0.338182; stroke-linejoin: miter"/>
   </g>
   <g id="patch_81">
    <path d="M 377.445069 318.4 
L 380.935767 318.4 
L 380.935767 313.703371 
L 377.445069 313.703371 
z
" clip-path="url(#p68b4fa2f51)" style="fill: #d17a3f; fill-opacity: 0.4; stroke: #ffffff; stroke-width: 0.338182; stroke-linejoin: miter"/>
   </g>
   <g id="patch_82">
    <path d="M 380.935767 318.4 
L 384.426466 318.4 
L 384.426466 315.268914 
L 380.935767 315.268914 
z
" clip-path="url(#p68b4fa2f51)" style="fill: #d17a3f; fill-opacity: 0.4; stroke: #ffffff; stroke-width: 0.338182; stroke-linejoin: miter"/>
   </g>
   <g id="patch_83">
    <path d="M 384.426466 318.4 
L 387.917164 318.4 
L 387.917164 313.703371 
L 384.426466 313.703371 
z
" clip-path="url(#p68b4fa2f51)" style="fill: #d17a3f; fill-opacity: 0.4; stroke: #ffffff; stroke-width: 0.338182; stroke-linejoin: miter"/>
   </g>
   <g id="patch_84">
    <path d="M 387.917164 318.4 
L 391.407862 318.4 
L 391.407862 316.20824 
L 387.917164 316.20824 
z
" clip-path="url(#p68b4fa2f51)" style="fill: #d17a3f; fill-opacity: 0.4; stroke: #ffffff; stroke-width: 0.338182; stroke-linejoin: miter"/>
   </g>
   <g id="patch_85">
    <path d="M 391.407862 318.4 
L 394.898561 318.4 
L 394.898561 314.329588 
L 391.407862 314.329588 
z
" clip-path="url(#p68b4fa2f51)" style="fill: #d17a3f; fill-opacity: 0.4; stroke: #ffffff; stroke-width: 0.338182; stroke-linejoin: miter"/>
   </g>
   <g id="patch_86">
    <path d="M 394.898561 318.4 
L 398.389259 318.4 
L 398.389259 313.390262 
L 394.898561 313.390262 
z
" clip-path="url(#p68b4fa2f51)" style="fill: #d17a3f; fill-opacity: 0.4; stroke: #ffffff; stroke-width: 0.338182; stroke-linejoin: miter"/>
   </g>
   <g id="patch_87">
    <path d="M 398.389259 318.4 
L 401.879957 318.4 
L 401.879957 316.20824 
L 398.389259 316.20824 
z
" clip-path="url(#p68b4fa2f51)" style="fill: #d17a3f; fill-opacity: 0.4; stroke: #ffffff; stroke-width: 0.338182; stroke-linejoin: miter"/>
   </g>
   <g id="patch_88">
    <path d="M 401.879957 318.4 
L 405.370655 318.4 
L 405.370655 316.20824 
L 401.879957 316.20824 
z
" clip-path="url(#p68b4fa2f51)" style="fill: #d17a3f; fill-opacity: 0.4; stroke: #ffffff; stroke-width: 0.338182; stroke-linejoin: miter"/>
   </g>
   <g id="patch_89">
    <path d="M 405.370655 318.4 
L 408.861354 318.4 
L 408.861354 316.521348 
L 405.370655 316.521348 
z
" clip-path="url(#p68b4fa2f51)" style="fill: #d17a3f; fill-opacity: 0.4; stroke: #ffffff; stroke-width: 0.338182; stroke-linejoin: miter"/>
   </g>
   <g id="patch_90">
    <path d="M 408.861354 318.4 
L 412.352052 318.4 
L 412.352052 316.20824 
L 408.861354 316.20824 
z
" clip-path="url(#p68b4fa2f51)" style="fill: #d17a3f; fill-opacity: 0.4; stroke: #ffffff; stroke-width: 0.338182; stroke-linejoin: miter"/>
   </g>
   <g id="patch_91">
    <path d="M 412.352052 318.4 
L 415.84275 318.4 
L 415.84275 314.016479 
L 412.352052 314.016479 
z
" clip-path="url(#p68b4fa2f51)" style="fill: #d17a3f; fill-opacity: 0.4; stroke: #ffffff; stroke-width: 0.338182; stroke-linejoin: miter"/>
   </g>
   <g id="patch_92">
    <path d="M 415.84275 318.4 
L 419.333449 318.4 
L 419.333449 316.20824 
L 415.84275 316.20824 
z
" clip-path="url(#p68b4fa2f51)" style="fill: #d17a3f; fill-opacity: 0.4; stroke: #ffffff; stroke-width: 0.338182; stroke-linejoin: miter"/>
   </g>
   <g id="patch_93">
    <path d="M 419.333449 318.4 
L 422.824147 318.4 
L 422.824147 316.834457 
L 419.333449 316.834457 
z
" clip-path="url(#p68b4fa2f51)" style="fill: #d17a3f; fill-opacity: 0.4; stroke: #ffffff; stroke-width: 0.338182; stroke-linejoin: miter"/>
   </g>
   <g id="patch_94">
    <path d="M 422.824147 318.4 
L 426.314845 318.4 
L 426.314845 316.834457 
L 422.824147 316.834457 
z
" clip-path="url(#p68b4fa2f51)" style="fill: #d17a3f; fill-opacity: 0.4; stroke: #ffffff; stroke-width: 0.338182; stroke-linejoin: miter"/>
   </g>
   <g id="patch_95">
    <path d="M 426.314845 318.4 
L 429.805543 318.4 
L 429.805543 316.834457 
L 426.314845 316.834457 
z
" clip-path="url(#p68b4fa2f51)" style="fill: #d17a3f; fill-opacity: 0.4; stroke: #ffffff; stroke-width: 0.338182; stroke-linejoin: miter"/>
   </g>
   <g id="patch_96">
    <path d="M 429.805543 318.4 
L 433.296242 318.4 
L 433.296242 317.773783 
L 429.805543 317.773783 
z
" clip-path="url(#p68b4fa2f51)" style="fill: #d17a3f; fill-opacity: 0.4; stroke: #ffffff; stroke-width: 0.338182; stroke-linejoin: miter"/>
   </g>
   <g id="patch_97">
    <path d="M 433.296242 318.4 
L 436.78694 318.4 
L 436.78694 317.147566 
L 433.296242 317.147566 
z
" clip-path="url(#p68b4fa2f51)" style="fill: #d17a3f; fill-opacity: 0.4; stroke: #ffffff; stroke-width: 0.338182; stroke-linejoin: miter"/>
   </g>
   <g id="patch_98">
    <path d="M 436.78694 318.4 
L 440.277638 318.4 
L 440.277638 315.895131 
L 436.78694 315.895131 
z
" clip-path="url(#p68b4fa2f51)" style="fill: #d17a3f; fill-opacity: 0.4; stroke: #ffffff; stroke-width: 0.338182; stroke-linejoin: miter"/>
   </g>
   <g id="patch_99">
    <path d="M 440.277638 318.4 
L 443.768337 318.4 
L 443.768337 317.773783 
L 440.277638 317.773783 
z
" clip-path="url(#p68b4fa2f51)" style="fill: #d17a3f; fill-opacity: 0.4; stroke: #ffffff; stroke-width: 0.338182; stroke-linejoin: miter"/>
   </g>
   <g id="patch_100">
    <path d="M 443.768337 318.4 
L 447.259035 318.4 
L 447.259035 318.4 
L 443.768337 318.4 
z
" clip-path="url(#p68b4fa2f51)" style="fill: #d17a3f; fill-opacity: 0.4; stroke: #ffffff; stroke-width: 0.338182; stroke-linejoin: miter"/>
   </g>
   <g id="patch_101">
    <path d="M 447.259035 318.4 
L 450.749733 318.4 
L 450.749733 317.460674 
L 447.259035 317.460674 
z
" clip-path="url(#p68b4fa2f51)" style="fill: #d17a3f; fill-opacity: 0.4; stroke: #ffffff; stroke-width: 0.338182; stroke-linejoin: miter"/>
   </g>
   <g id="patch_102">
    <path d="M 450.749733 318.4 
L 454.240431 318.4 
L 454.240431 317.460674 
L 450.749733 317.460674 
z
" clip-path="url(#p68b4fa2f51)" style="fill: #d17a3f; fill-opacity: 0.4; stroke: #ffffff; stroke-width: 0.338182; stroke-linejoin: miter"/>
   </g>
   <g id="patch_103">
    <path d="M 454.240431 318.4 
L 457.73113 318.4 
L 457.73113 317.773783 
L 454.240431 317.773783 
z
" clip-path="url(#p68b4fa2f51)" style="fill: #d17a3f; fill-opacity: 0.4; stroke: #ffffff; stroke-width: 0.338182; stroke-linejoin: miter"/>
   </g>
   <g id="patch_104">
    <path d="M 457.73113 318.4 
L 461.221828 318.4 
L 461.221828 317.460674 
L 457.73113 317.460674 
z
" clip-path="url(#p68b4fa2f51)" style="fill: #d17a3f; fill-opacity: 0.4; stroke: #ffffff; stroke-width: 0.338182; stroke-linejoin: miter"/>
   </g>
   <g id="patch_105">
    <path d="M 461.221828 318.4 
L 464.712526 318.4 
L 464.712526 317.460674 
L 461.221828 317.460674 
z
" clip-path="url(#p68b4fa2f51)" style="fill: #d17a3f; fill-opacity: 0.4; stroke: #ffffff; stroke-width: 0.338182; stroke-linejoin: miter"/>
   </g>
   <g id="patch_106">
    <path d="M 464.712526 318.4 
L 468.203225 318.4 
L 468.203225 317.773783 
L 464.712526 317.773783 
z
" clip-path="url(#p68b4fa2f51)" style="fill: #d17a3f; fill-opacity: 0.4; stroke: #ffffff; stroke-width: 0.338182; stroke-linejoin: miter"/>
   </g>
   <g id="patch_107">
    <path d="M 468.203225 318.4 
L 471.693923 318.4 
L 471.693923 318.086891 
L 468.203225 318.086891 
z
" clip-path="url(#p68b4fa2f51)" style="fill: #d17a3f; fill-opacity: 0.4; stroke: #ffffff; stroke-width: 0.338182; stroke-linejoin: miter"/>
   </g>
   <g id="patch_108">
    <path d="M 471.693923 318.4 
L 475.184621 318.4 
L 475.184621 317.460674 
L 471.693923 317.460674 
z
" clip-path="url(#p68b4fa2f51)" style="fill: #d17a3f; fill-opacity: 0.4; stroke: #ffffff; stroke-width: 0.338182; stroke-linejoin: miter"/>
   </g>
   <g id="patch_109">
    <path d="M 475.184621 318.4 
L 478.675319 318.4 
L 478.675319 318.4 
L 475.184621 318.4 
z
" clip-path="url(#p68b4fa2f51)" style="fill: #d17a3f; fill-opacity: 0.4; stroke: #ffffff; stroke-width: 0.338182; stroke-linejoin: miter"/>
   </g>
   <g id="patch_110">
    <path d="M 478.675319 318.4 
L 482.166018 318.4 
L 482.166018 317.773783 
L 478.675319 317.773783 
z
" clip-path="url(#p68b4fa2f51)" style="fill: #d17a3f; fill-opacity: 0.4; stroke: #ffffff; stroke-width: 0.338182; stroke-linejoin: miter"/>
   </g>
   <g id="patch_111">
    <path d="M 482.166018 318.4 
L 485.656716 318.4 
L 485.656716 317.773783 
L 482.166018 317.773783 
z
" clip-path="url(#p68b4fa2f51)" style="fill: #d17a3f; fill-opacity: 0.4; stroke: #ffffff; stroke-width: 0.338182; stroke-linejoin: miter"/>
   </g>
   <g id="patch_112">
    <path d="M 485.656716 318.4 
L 489.147414 318.4 
L 489.147414 318.086891 
L 485.656716 318.086891 
z
" clip-path="url(#p68b4fa2f51)" style="fill: #d17a3f; fill-opacity: 0.4; stroke: #ffffff; stroke-width: 0.338182; stroke-linejoin: miter"/>
   </g>
   <g id="patch_113">
    <path d="M 489.147414 318.4 
L 492.638113 318.4 
L 492.638113 318.086891 
L 489.147414 318.086891 
z
" clip-path="url(#p68b4fa2f51)" style="fill: #d17a3f; fill-opacity: 0.4; stroke: #ffffff; stroke-width: 0.338182; stroke-linejoin: miter"/>
   </g>
   <g id="patch_114">
    <path d="M 492.638113 318.4 
L 496.128811 318.4 
L 496.128811 317.147566 
L 492.638113 317.147566 
z
" clip-path="url(#p68b4fa2f51)" style="fill: #d17a3f; fill-opacity: 0.4; stroke: #ffffff; stroke-width: 0.338182; stroke-linejoin: miter"/>
   </g>
   <g id="patch_115">
    <path d="M 496.128811 318.4 
L 499.619509 318.4 
L 499.619509 318.086891 
L 496.128811 318.086891 
z
" clip-path="url(#p68b4fa2f51)" style="fill: #d17a3f; fill-opacity: 0.4; stroke: #ffffff; stroke-width: 0.338182; stroke-linejoin: miter"/>
   </g>
   <g id="patch_116">
    <path d="M 499.619509 318.4 
L 503.110207 318.4 
L 503.110207 318.086891 
L 499.619509 318.086891 
z
" clip-path="url(#p68b4fa2f51)" style="fill: #d17a3f; fill-opacity: 0.4; stroke: #ffffff; stroke-width: 0.338182; stroke-linejoin: miter"/>
   </g>
   <g id="patch_117">
    <path d="M 503.110207 318.4 
L 506.600906 318.4 
L 506.600906 317.773783 
L 503.110207 317.773783 
z
" clip-path="url(#p68b4fa2f51)" style="fill: #d17a3f; fill-opacity: 0.4; stroke: #ffffff; stroke-width: 0.338182; stroke-linejoin: miter"/>
   </g>
   <g id="patch_118">
    <path d="M 506.600906 318.4 
L 510.091604 318.4 
L 510.091604 318.4 
L 506.600906 318.4 
z
" clip-path="url(#p68b4fa2f51)" style="fill: #d17a3f; fill-opacity: 0.4; stroke: #ffffff; stroke-width: 0.338182; stroke-linejoin: miter"/>
   </g>
   <g id="patch_119">
    <path d="M 510.091604 318.4 
L 513.582302 318.4 
L 513.582302 317.460674 
L 510.091604 317.460674 
z
" clip-path="url(#p68b4fa2f51)" style="fill: #d17a3f; fill-opacity: 0.4; stroke: #ffffff; stroke-width: 0.338182; stroke-linejoin: miter"/>
   </g>
   <g id="patch_120">
    <path d="M 513.582302 318.4 
L 517.073001 318.4 
L 517.073001 318.4 
L 513.582302 318.4 
z
" clip-path="url(#p68b4fa2f51)" style="fill: #d17a3f; fill-opacity: 0.4; stroke: #ffffff; stroke-width: 0.338182; stroke-linejoin: miter"/>
   </g>
   <g id="patch_121">
    <path d="M 517.073001 318.4 
L 520.563699 318.4 
L 520.563699 318.4 
L 517.073001 318.4 
z
" clip-path="url(#p68b4fa2f51)" style="fill: #d17a3f; fill-opacity: 0.4; stroke: #ffffff; stroke-width: 0.338182; stroke-linejoin: miter"/>
   </g>
   <g id="patch_122">
    <path d="M 520.563699 318.4 
L 524.054397 318.4 
L 524.054397 317.773783 
L 520.563699 317.773783 
z
" clip-path="url(#p68b4fa2f51)" style="fill: #d17a3f; fill-opacity: 0.4; stroke: #ffffff; stroke-width: 0.338182; stroke-linejoin: miter"/>
   </g>
   <g id="matplotlib.axis_1">
    <g id="xtick_1">
     <g id="line2d_1">
      <path d="M 80.564737 318.4 
L 80.564737 25.8 
" clip-path="url(#p68b4fa2f51)" style="fill: none; stroke: #ffffff; stroke-opacity: 0.3; stroke-width: 0.8; stroke-linecap: square"/>
     </g>
     <g id="line2d_2">
      <defs>
       <path id="ma45bebb7cc" d="M 0 0 
L 0 3.5 
" style="stroke: #ffffff; stroke-width: 0.8"/>
      </defs>
      <g>
       <use xlink:href="#ma45bebb7cc" x="80.564737" y="318.4" style="fill: #ffffff; stroke: #ffffff; stroke-width: 0.8"/>
      </g>
     </g>
     <g id="text_1">
      <!-- 0 -->
      <g style="fill: #ffffff" transform="translate(77.701612 332.238594) scale(0.09 -0.09)">
       <defs>
        <path id="DejaVuSans-30" d="M 2034 4250 
Q 1547 4250 1301 3770 
Q 1056 3291 1056 2328 
Q 1056 1369 1301 889 
Q 1547 409 2034 409 
Q 2525 409 2770 889 
Q 3016 1369 3016 2328 
Q 3016 3291 2770 3770 
Q 2525 4250 2034 4250 
z
M 2034 4750 
Q 2819 4750 3233 4129 
Q 3647 3509 3647 2328 
Q 3647 1150 3233 529 
Q 2819 -91 2034 -91 
Q 1250 -91 836 529 
Q 422 1150 422 2328 
Q 422 3509 836 4129 
Q 1250 4750 2034 4750 
z
" transform="scale(0.015625)"/>
       </defs>
       <use xlink:href="#DejaVuSans-30"/>
      </g>
     </g>
    </g>
    <g id="xtick_2">
     <g id="line2d_3">
      <path d="M 154.941558 318.4 
L 154.941558 25.8 
" clip-path="url(#p68b4fa2f51)" style="fill: none; stroke: #ffffff; stroke-opacity: 0.3; stroke-width: 0.8; stroke-linecap: square"/>
     </g>
     <g id="line2d_4">
      <g>
       <use xlink:href="#ma45bebb7cc" x="154.941558" y="318.4" style="fill: #ffffff; stroke: #ffffff; stroke-width: 0.8"/>
      </g>
     </g>
     <g id="text_2">
      <!-- 50 -->
      <g style="fill: #ffffff" transform="translate(149.215308 332.238594) scale(0.09 -0.09)">
       <defs>
        <path id="DejaVuSans-35" d="M 691 4666 
L 3169 4666 
L 3169 4134 
L 1269 4134 
L 1269 2991 
Q 1406 3038 1543 3061 
Q 1681 3084 1819 3084 
Q 2600 3084 3056 2656 
Q 3513 2228 3513 1497 
Q 3513 744 3044 326 
Q 2575 -91 1722 -91 
Q 1428 -91 1123 -41 
Q 819 9 494 109 
L 494 744 
Q 775 591 1075 516 
Q 1375 441 1709 441 
Q 2250 441 2565 725 
Q 2881 1009 2881 1497 
Q 2881 1984 2565 2268 
Q 2250 2553 1709 2553 
Q 1456 2553 1204 2497 
Q 953 2441 691 2322 
L 691 4666 
z
" transform="scale(0.015625)"/>
       </defs>
       <use xlink:href="#DejaVuSans-35"/>
       <use xlink:href="#DejaVuSans-30" transform="translate(63.623047 0)"/>
      </g>
     </g>
    </g>
    <g id="xtick_3">
     <g id="line2d_5">
      <path d="M 229.318379 318.4 
L 229.318379 25.8 
" clip-path="url(#p68b4fa2f51)" style="fill: none; stroke: #ffffff; stroke-opacity: 0.3; stroke-width: 0.8; stroke-linecap: square"/>
     </g>
     <g id="line2d_6">
      <g>
       <use xlink:href="#ma45bebb7cc" x="229.318379" y="318.4" style="fill: #ffffff; stroke: #ffffff; stroke-width: 0.8"/>
      </g>
     </g>
     <g id="text_3">
      <!-- 100 -->
      <g style="fill: #ffffff" transform="translate(220.729004 332.238594) scale(0.09 -0.09)">
       <defs>
        <path id="DejaVuSans-31" d="M 794 531 
L 1825 531 
L 1825 4091 
L 703 3866 
L 703 4441 
L 1819 4666 
L 2450 4666 
L 2450 531 
L 3481 531 
L 3481 0 
L 794 0 
L 794 531 
z
" transform="scale(0.015625)"/>
       </defs>
       <use xlink:href="#DejaVuSans-31"/>
       <use xlink:href="#DejaVuSans-30" transform="translate(63.623047 0)"/>
       <use xlink:href="#DejaVuSans-30" transform="translate(127.246094 0)"/>
      </g>
     </g>
    </g>
    <g id="xtick_4">
     <g id="line2d_7">
      <path d="M 303.695201 318.4 
L 303.695201 25.8 
" clip-path="url(#p68b4fa2f51)" style="fill: none; stroke: #ffffff; stroke-opacity: 0.3; stroke-width: 0.8; stroke-linecap: square"/>
     </g>
     <g id="line2d_8">
      <g>
       <use xlink:href="#ma45bebb7cc" x="303.695201" y="318.4" style="fill: #ffffff; stroke: #ffffff; stroke-width: 0.8"/>
      </g>
     </g>
     <g id="text_4">
      <!-- 150 -->
      <g style="fill: #ffffff" transform="translate(295.105826 332.238594) scale(0.09 -0.09)">
       <use xlink:href="#DejaVuSans-31"/>
       <use xlink:href="#DejaVuSans-35" transform="translate(63.623047 0)"/>
       <use xlink:href="#DejaVuSans-30" transform="translate(127.246094 0)"/>
      </g>
     </g>
    </g>
    <g id="xtick_5">
     <g id="line2d_9">
      <path d="M 378.072022 318.4 
L 378.072022 25.8 
" clip-path="url(#p68b4fa2f51)" style="fill: none; stroke: #ffffff; stroke-opacity: 0.3; stroke-width: 0.8; stroke-linecap: square"/>
     </g>
     <g id="line2d_10">
      <g>
       <use xlink:href="#ma45bebb7cc" x="378.072022" y="318.4" style="fill: #ffffff; stroke: #ffffff; stroke-width: 0.8"/>
      </g>
     </g>
     <g id="text_5">
      <!-- 200 -->
      <g style="fill: #ffffff" transform="translate(369.482647 332.238594) scale(0.09 -0.09)">
       <defs>
        <path id="DejaVuSans-32" d="M 1228 531 
L 3431 531 
L 3431 0 
L 469 0 
L 469 531 
Q 828 903 1448 1529 
Q 2069 2156 2228 2338 
Q 2531 2678 2651 2914 
Q 2772 3150 2772 3378 
Q 2772 3750 2511 3984 
Q 2250 4219 1831 4219 
Q 1534 4219 1204 4116 
Q 875 4013 500 3803 
L 500 4441 
Q 881 4594 1212 4672 
Q 1544 4750 1819 4750 
Q 2544 4750 2975 4387 
Q 3406 4025 3406 3419 
Q 3406 3131 3298 2873 
Q 3191 2616 2906 2266 
Q 2828 2175 2409 1742 
Q 1991 1309 1228 531 
z
" transform="scale(0.015625)"/>
       </defs>
       <use xlink:href="#DejaVuSans-32"/>
       <use xlink:href="#DejaVuSans-30" transform="translate(63.623047 0)"/>
       <use xlink:href="#DejaVuSans-30" transform="translate(127.246094 0)"/>
      </g>
     </g>
    </g>
    <g id="xtick_6">
     <g id="line2d_11">
      <path d="M 452.448843 318.4 
L 452.448843 25.8 
" clip-path="url(#p68b4fa2f51)" style="fill: none; stroke: #ffffff; stroke-opacity: 0.3; stroke-width: 0.8; stroke-linecap: square"/>
     </g>
     <g id="line2d_12">
      <g>
       <use xlink:href="#ma45bebb7cc" x="452.448843" y="318.4" style="fill: #ffffff; stroke: #ffffff; stroke-width: 0.8"/>
      </g>
     </g>
     <g id="text_6">
      <!-- 250 -->
      <g style="fill: #ffffff" transform="translate(443.859468 332.238594) scale(0.09 -0.09)">
       <use xlink:href="#DejaVuSans-32"/>
       <use xlink:href="#DejaVuSans-35" transform="translate(63.623047 0)"/>
       <use xlink:href="#DejaVuSans-30" transform="translate(127.246094 0)"/>
      </g>
     </g>
    </g>
    <g id="xtick_7">
     <g id="line2d_13">
      <path d="M 526.825664 318.4 
L 526.825664 25.8 
" clip-path="url(#p68b4fa2f51)" style="fill: none; stroke: #ffffff; stroke-opacity: 0.3; stroke-width: 0.8; stroke-linecap: square"/>
     </g>
     <g id="line2d_14">
      <g>
       <use xlink:href="#ma45bebb7cc" x="526.825664" y="318.4" style="fill: #ffffff; stroke: #ffffff; stroke-width: 0.8"/>
      </g>
     </g>
     <g id="text_7">
      <!-- 300 -->
      <g style="fill: #ffffff" transform="translate(518.236289 332.238594) scale(0.09 -0.09)">
       <defs>
        <path id="DejaVuSans-33" d="M 2597 2516 
Q 3050 2419 3304 2112 
Q 3559 1806 3559 1356 
Q 3559 666 3084 287 
Q 2609 -91 1734 -91 
Q 1441 -91 1130 -33 
Q 819 25 488 141 
L 488 750 
Q 750 597 1062 519 
Q 1375 441 1716 441 
Q 2309 441 2620 675 
Q 2931 909 2931 1356 
Q 2931 1769 2642 2001 
Q 2353 2234 1838 2234 
L 1294 2234 
L 1294 2753 
L 1863 2753 
Q 2328 2753 2575 2939 
Q 2822 3125 2822 3475 
Q 2822 3834 2567 4026 
Q 2313 4219 1838 4219 
Q 1578 4219 1281 4162 
Q 984 4106 628 3988 
L 628 4550 
Q 988 4650 1302 4700 
Q 1616 4750 1894 4750 
Q 2613 4750 3031 4423 
Q 3450 4097 3450 3541 
Q 3450 3153 3228 2886 
Q 3006 2619 2597 2516 
z
" transform="scale(0.015625)"/>
       </defs>
       <use xlink:href="#DejaVuSans-33"/>
       <use xlink:href="#DejaVuSans-30" transform="translate(63.623047 0)"/>
       <use xlink:href="#DejaVuSans-30" transform="translate(127.246094 0)"/>
      </g>
     </g>
    </g>
    <g id="text_8">
     <!-- PaO2+100%mean -->
     <g style="fill: #ffffff" transform="translate(264.413828 346.468594) scale(0.11 -0.11)">
      <defs>
       <path id="DejaVuSans-50" d="M 1259 4147 
L 1259 2394 
L 2053 2394 
Q 2494 2394 2734 2622 
Q 2975 2850 2975 3272 
Q 2975 3691 2734 3919 
Q 2494 4147 2053 4147 
L 1259 4147 
z
M 628 4666 
L 2053 4666 
Q 2838 4666 3239 4311 
Q 3641 3956 3641 3272 
Q 3641 2581 3239 2228 
Q 2838 1875 2053 1875 
L 1259 1875 
L 1259 0 
L 628 0 
L 628 4666 
z
" transform="scale(0.015625)"/>
       <path id="DejaVuSans-61" d="M 2194 1759 
Q 1497 1759 1228 1600 
Q 959 1441 959 1056 
Q 959 750 1161 570 
Q 1363 391 1709 391 
Q 2188 391 2477 730 
Q 2766 1069 2766 1631 
L 2766 1759 
L 2194 1759 
z
M 3341 1997 
L 3341 0 
L 2766 0 
L 2766 531 
Q 2569 213 2275 61 
Q 1981 -91 1556 -91 
Q 1019 -91 701 211 
Q 384 513 384 1019 
Q 384 1609 779 1909 
Q 1175 2209 1959 2209 
L 2766 2209 
L 2766 2266 
Q 2766 2663 2505 2880 
Q 2244 3097 1772 3097 
Q 1472 3097 1187 3025 
Q 903 2953 641 2809 
L 641 3341 
Q 956 3463 1253 3523 
Q 1550 3584 1831 3584 
Q 2591 3584 2966 3190 
Q 3341 2797 3341 1997 
z
" transform="scale(0.015625)"/>
       <path id="DejaVuSans-4f" d="M 2522 4238 
Q 1834 4238 1429 3725 
Q 1025 3213 1025 2328 
Q 1025 1447 1429 934 
Q 1834 422 2522 422 
Q 3209 422 3611 934 
Q 4013 1447 4013 2328 
Q 4013 3213 3611 3725 
Q 3209 4238 2522 4238 
z
M 2522 4750 
Q 3503 4750 4090 4092 
Q 4678 3434 4678 2328 
Q 4678 1225 4090 567 
Q 3503 -91 2522 -91 
Q 1538 -91 948 565 
Q 359 1222 359 2328 
Q 359 3434 948 4092 
Q 1538 4750 2522 4750 
z
" transform="scale(0.015625)"/>
       <path id="DejaVuSans-2b" d="M 2944 4013 
L 2944 2272 
L 4684 2272 
L 4684 1741 
L 2944 1741 
L 2944 0 
L 2419 0 
L 2419 1741 
L 678 1741 
L 678 2272 
L 2419 2272 
L 2419 4013 
L 2944 4013 
z
" transform="scale(0.015625)"/>
       <path id="DejaVuSans-25" d="M 4653 2053 
Q 4381 2053 4226 1822 
Q 4072 1591 4072 1178 
Q 4072 772 4226 539 
Q 4381 306 4653 306 
Q 4919 306 5073 539 
Q 5228 772 5228 1178 
Q 5228 1588 5073 1820 
Q 4919 2053 4653 2053 
z
M 4653 2450 
Q 5147 2450 5437 2106 
Q 5728 1763 5728 1178 
Q 5728 594 5436 251 
Q 5144 -91 4653 -91 
Q 4153 -91 3862 251 
Q 3572 594 3572 1178 
Q 3572 1766 3864 2108 
Q 4156 2450 4653 2450 
z
M 1428 4353 
Q 1159 4353 1004 4120 
Q 850 3888 850 3481 
Q 850 3069 1003 2837 
Q 1156 2606 1428 2606 
Q 1700 2606 1854 2837 
Q 2009 3069 2009 3481 
Q 2009 3884 1853 4118 
Q 1697 4353 1428 4353 
z
M 4250 4750 
L 4750 4750 
L 1831 -91 
L 1331 -91 
L 4250 4750 
z
M 1428 4750 
Q 1922 4750 2215 4408 
Q 2509 4066 2509 3481 
Q 2509 2891 2217 2550 
Q 1925 2209 1428 2209 
Q 931 2209 642 2551 
Q 353 2894 353 3481 
Q 353 4063 643 4406 
Q 934 4750 1428 4750 
z
" transform="scale(0.015625)"/>
       <path id="DejaVuSans-6d" d="M 3328 2828 
Q 3544 3216 3844 3400 
Q 4144 3584 4550 3584 
Q 5097 3584 5394 3201 
Q 5691 2819 5691 2113 
L 5691 0 
L 5113 0 
L 5113 2094 
Q 5113 2597 4934 2840 
Q 4756 3084 4391 3084 
Q 3944 3084 3684 2787 
Q 3425 2491 3425 1978 
L 3425 0 
L 2847 0 
L 2847 2094 
Q 2847 2600 2669 2842 
Q 2491 3084 2119 3084 
Q 1678 3084 1418 2786 
Q 1159 2488 1159 1978 
L 1159 0 
L 581 0 
L 581 3500 
L 1159 3500 
L 1159 2956 
Q 1356 3278 1631 3431 
Q 1906 3584 2284 3584 
Q 2666 3584 2933 3390 
Q 3200 3197 3328 2828 
z
" transform="scale(0.015625)"/>
       <path id="DejaVuSans-65" d="M 3597 1894 
L 3597 1613 
L 953 1613 
Q 991 1019 1311 708 
Q 1631 397 2203 397 
Q 2534 397 2845 478 
Q 3156 559 3463 722 
L 3463 178 
Q 3153 47 2828 -22 
Q 2503 -91 2169 -91 
Q 1331 -91 842 396 
Q 353 884 353 1716 
Q 353 2575 817 3079 
Q 1281 3584 2069 3584 
Q 2775 3584 3186 3129 
Q 3597 2675 3597 1894 
z
M 3022 2063 
Q 3016 2534 2758 2815 
Q 2500 3097 2075 3097 
Q 1594 3097 1305 2825 
Q 1016 2553 972 2059 
L 3022 2063 
z
" transform="scale(0.015625)"/>
       <path id="DejaVuSans-6e" d="M 3513 2113 
L 3513 0 
L 2938 0 
L 2938 2094 
Q 2938 2591 2744 2837 
Q 2550 3084 2163 3084 
Q 1697 3084 1428 2787 
Q 1159 2491 1159 1978 
L 1159 0 
L 581 0 
L 581 3500 
L 1159 3500 
L 1159 2956 
Q 1366 3272 1645 3428 
Q 1925 3584 2291 3584 
Q 2894 3584 3203 3211 
Q 3513 2838 3513 2113 
z
" transform="scale(0.015625)"/>
      </defs>
      <use xlink:href="#DejaVuSans-50"/>
      <use xlink:href="#DejaVuSans-61" transform="translate(55.802734 0)"/>
      <use xlink:href="#DejaVuSans-4f" transform="translate(117.082031 0)"/>
      <use xlink:href="#DejaVuSans-32" transform="translate(195.792969 0)"/>
      <use xlink:href="#DejaVuSans-2b" transform="translate(259.416016 0)"/>
      <use xlink:href="#DejaVuSans-31" transform="translate(343.205078 0)"/>
      <use xlink:href="#DejaVuSans-30" transform="translate(406.828125 0)"/>
      <use xlink:href="#DejaVuSans-30" transform="translate(470.451172 0)"/>
      <use xlink:href="#DejaVuSans-25" transform="translate(534.074219 0)"/>
      <use xlink:href="#DejaVuSans-6d" transform="translate(629.09375 0)"/>
      <use xlink:href="#DejaVuSans-65" transform="translate(726.505859 0)"/>
      <use xlink:href="#DejaVuSans-61" transform="translate(788.029297 0)"/>
      <use xlink:href="#DejaVuSans-6e" transform="translate(849.308594 0)"/>
     </g>
    </g>
   </g>
   <g id="matplotlib.axis_2">
    <g id="ytick_1">
     <g id="line2d_15">
      <path d="M 64.025 318.4 
L 565.2 318.4 
" clip-path="url(#p68b4fa2f51)" style="fill: none; stroke: #ffffff; stroke-opacity: 0.3; stroke-width: 0.8; stroke-linecap: square"/>
     </g>
     <g id="line2d_16">
      <defs>
       <path id="m4552b7eed2" d="M 0 0 
L -3.5 0 
" style="stroke: #ffffff; stroke-width: 0.8"/>
      </defs>
      <g>
       <use xlink:href="#m4552b7eed2" x="64.025" y="318.4" style="fill: #ffffff; stroke: #ffffff; stroke-width: 0.8"/>
      </g>
     </g>
     <g id="text_9">
      <!-- 0.0000 -->
      <g style="fill: #ffffff" transform="translate(25.533438 321.819297) scale(0.09 -0.09)">
       <defs>
        <path id="DejaVuSans-2e" d="M 684 794 
L 1344 794 
L 1344 0 
L 684 0 
L 684 794 
z
" transform="scale(0.015625)"/>
       </defs>
       <use xlink:href="#DejaVuSans-30"/>
       <use xlink:href="#DejaVuSans-2e" transform="translate(63.623047 0)"/>
       <use xlink:href="#DejaVuSans-30" transform="translate(95.410156 0)"/>
       <use xlink:href="#DejaVuSans-30" transform="translate(159.033203 0)"/>
       <use xlink:href="#DejaVuSans-30" transform="translate(222.65625 0)"/>
       <use xlink:href="#DejaVuSans-30" transform="translate(286.279297 0)"/>
      </g>
     </g>
    </g>
    <g id="ytick_2">
     <g id="line2d_17">
      <path d="M 64.025 280.949782 
L 565.2 280.949782 
" clip-path="url(#p68b4fa2f51)" style="fill: none; stroke: #ffffff; stroke-opacity: 0.3; stroke-width: 0.8; stroke-linecap: square"/>
     </g>
     <g id="line2d_18">
      <g>
       <use xlink:href="#m4552b7eed2" x="64.025" y="280.949782" style="fill: #ffffff; stroke: #ffffff; stroke-width: 0.8"/>
      </g>
     </g>
     <g id="text_10">
      <!-- 0.0025 -->
      <g style="fill: #ffffff" transform="translate(25.533438 284.369079) scale(0.09 -0.09)">
       <use xlink:href="#DejaVuSans-30"/>
       <use xlink:href="#DejaVuSans-2e" transform="translate(63.623047 0)"/>
       <use xlink:href="#DejaVuSans-30" transform="translate(95.410156 0)"/>
       <use xlink:href="#DejaVuSans-30" transform="translate(159.033203 0)"/>
       <use xlink:href="#DejaVuSans-32" transform="translate(222.65625 0)"/>
       <use xlink:href="#DejaVuSans-35" transform="translate(286.279297 0)"/>
      </g>
     </g>
    </g>
    <g id="ytick_3">
     <g id="line2d_19">
      <path d="M 64.025 243.499563 
L 565.2 243.499563 
" clip-path="url(#p68b4fa2f51)" style="fill: none; stroke: #ffffff; stroke-opacity: 0.3; stroke-width: 0.8; stroke-linecap: square"/>
     </g>
     <g id="line2d_20">
      <g>
       <use xlink:href="#m4552b7eed2" x="64.025" y="243.499563" style="fill: #ffffff; stroke: #ffffff; stroke-width: 0.8"/>
      </g>
     </g>
     <g id="text_11">
      <!-- 0.0050 -->
      <g style="fill: #ffffff" transform="translate(25.533438 246.91886) scale(0.09 -0.09)">
       <use xlink:href="#DejaVuSans-30"/>
       <use xlink:href="#DejaVuSans-2e" transform="translate(63.623047 0)"/>
       <use xlink:href="#DejaVuSans-30" transform="translate(95.410156 0)"/>
       <use xlink:href="#DejaVuSans-30" transform="translate(159.033203 0)"/>
       <use xlink:href="#DejaVuSans-35" transform="translate(222.65625 0)"/>
       <use xlink:href="#DejaVuSans-30" transform="translate(286.279297 0)"/>
      </g>
     </g>
    </g>
    <g id="ytick_4">
     <g id="line2d_21">
      <path d="M 64.025 206.049345 
L 565.2 206.049345 
" clip-path="url(#p68b4fa2f51)" style="fill: none; stroke: #ffffff; stroke-opacity: 0.3; stroke-width: 0.8; stroke-linecap: square"/>
     </g>
     <g id="line2d_22">
      <g>
       <use xlink:href="#m4552b7eed2" x="64.025" y="206.049345" style="fill: #ffffff; stroke: #ffffff; stroke-width: 0.8"/>
      </g>
     </g>
     <g id="text_12">
      <!-- 0.0075 -->
      <g style="fill: #ffffff" transform="translate(25.533438 209.468642) scale(0.09 -0.09)">
       <defs>
        <path id="DejaVuSans-37" d="M 525 4666 
L 3525 4666 
L 3525 4397 
L 1831 0 
L 1172 0 
L 2766 4134 
L 525 4134 
L 525 4666 
z
" transform="scale(0.015625)"/>
       </defs>
       <use xlink:href="#DejaVuSans-30"/>
       <use xlink:href="#DejaVuSans-2e" transform="translate(63.623047 0)"/>
       <use xlink:href="#DejaVuSans-30" transform="translate(95.410156 0)"/>
       <use xlink:href="#DejaVuSans-30" transform="translate(159.033203 0)"/>
       <use xlink:href="#DejaVuSans-37" transform="translate(222.65625 0)"/>
       <use xlink:href="#DejaVuSans-35" transform="translate(286.279297 0)"/>
      </g>
     </g>
    </g>
    <g id="ytick_5">
     <g id="line2d_23">
      <path d="M 64.025 168.599127 
L 565.2 168.599127 
" clip-path="url(#p68b4fa2f51)" style="fill: none; stroke: #ffffff; stroke-opacity: 0.3; stroke-width: 0.8; stroke-linecap: square"/>
     </g>
     <g id="line2d_24">
      <g>
       <use xlink:href="#m4552b7eed2" x="64.025" y="168.599127" style="fill: #ffffff; stroke: #ffffff; stroke-width: 0.8"/>
      </g>
     </g>
     <g id="text_13">
      <!-- 0.0100 -->
      <g style="fill: #ffffff" transform="translate(25.533438 172.018423) scale(0.09 -0.09)">
       <use xlink:href="#DejaVuSans-30"/>
       <use xlink:href="#DejaVuSans-2e" transform="translate(63.623047 0)"/>
       <use xlink:href="#DejaVuSans-30" transform="translate(95.410156 0)"/>
       <use xlink:href="#DejaVuSans-31" transform="translate(159.033203 0)"/>
       <use xlink:href="#DejaVuSans-30" transform="translate(222.65625 0)"/>
       <use xlink:href="#DejaVuSans-30" transform="translate(286.279297 0)"/>
      </g>
     </g>
    </g>
    <g id="ytick_6">
     <g id="line2d_25">
      <path d="M 64.025 131.148908 
L 565.2 131.148908 
" clip-path="url(#p68b4fa2f51)" style="fill: none; stroke: #ffffff; stroke-opacity: 0.3; stroke-width: 0.8; stroke-linecap: square"/>
     </g>
     <g id="line2d_26">
      <g>
       <use xlink:href="#m4552b7eed2" x="64.025" y="131.148908" style="fill: #ffffff; stroke: #ffffff; stroke-width: 0.8"/>
      </g>
     </g>
     <g id="text_14">
      <!-- 0.0125 -->
      <g style="fill: #ffffff" transform="translate(25.533438 134.568205) scale(0.09 -0.09)">
       <use xlink:href="#DejaVuSans-30"/>
       <use xlink:href="#DejaVuSans-2e" transform="translate(63.623047 0)"/>
       <use xlink:href="#DejaVuSans-30" transform="translate(95.410156 0)"/>
       <use xlink:href="#DejaVuSans-31" transform="translate(159.033203 0)"/>
       <use xlink:href="#DejaVuSans-32" transform="translate(222.65625 0)"/>
       <use xlink:href="#DejaVuSans-35" transform="translate(286.279297 0)"/>
      </g>
     </g>
    </g>
    <g id="ytick_7">
     <g id="line2d_27">
      <path d="M 64.025 93.69869 
L 565.2 93.69869 
" clip-path="url(#p68b4fa2f51)" style="fill: none; stroke: #ffffff; stroke-opacity: 0.3; stroke-width: 0.8; stroke-linecap: square"/>
     </g>
     <g id="line2d_28">
      <g>
       <use xlink:href="#m4552b7eed2" x="64.025" y="93.69869" style="fill: #ffffff; stroke: #ffffff; stroke-width: 0.8"/>
      </g>
     </g>
     <g id="text_15">
      <!-- 0.0150 -->
      <g style="fill: #ffffff" transform="translate(25.533438 97.117987) scale(0.09 -0.09)">
       <use xlink:href="#DejaVuSans-30"/>
       <use xlink:href="#DejaVuSans-2e" transform="translate(63.623047 0)"/>
       <use xlink:href="#DejaVuSans-30" transform="translate(95.410156 0)"/>
       <use xlink:href="#DejaVuSans-31" transform="translate(159.033203 0)"/>
       <use xlink:href="#DejaVuSans-35" transform="translate(222.65625 0)"/>
       <use xlink:href="#DejaVuSans-30" transform="translate(286.279297 0)"/>
      </g>
     </g>
    </g>
    <g id="ytick_8">
     <g id="line2d_29">
      <path d="M 64.025 56.248471 
L 565.2 56.248471 
" clip-path="url(#p68b4fa2f51)" style="fill: none; stroke: #ffffff; stroke-opacity: 0.3; stroke-width: 0.8; stroke-linecap: square"/>
     </g>
     <g id="line2d_30">
      <g>
       <use xlink:href="#m4552b7eed2" x="64.025" y="56.248471" style="fill: #ffffff; stroke: #ffffff; stroke-width: 0.8"/>
      </g>
     </g>
     <g id="text_16">
      <!-- 0.0175 -->
      <g style="fill: #ffffff" transform="translate(25.533438 59.667768) scale(0.09 -0.09)">
       <use xlink:href="#DejaVuSans-30"/>
       <use xlink:href="#DejaVuSans-2e" transform="translate(63.623047 0)"/>
       <use xlink:href="#DejaVuSans-30" transform="translate(95.410156 0)"/>
       <use xlink:href="#DejaVuSans-31" transform="translate(159.033203 0)"/>
       <use xlink:href="#DejaVuSans-37" transform="translate(222.65625 0)"/>
       <use xlink:href="#DejaVuSans-35" transform="translate(286.279297 0)"/>
      </g>
     </g>
    </g>
    <g id="text_17">
     <!-- Density -->
     <g style="fill: #ffffff" transform="translate(19.245781 193.009453) rotate(-90) scale(0.11 -0.11)">
      <defs>
       <path id="DejaVuSans-44" d="M 1259 4147 
L 1259 519 
L 2022 519 
Q 2988 519 3436 956 
Q 3884 1394 3884 2338 
Q 3884 3275 3436 3711 
Q 2988 4147 2022 4147 
L 1259 4147 
z
M 628 4666 
L 1925 4666 
Q 3281 4666 3915 4102 
Q 4550 3538 4550 2338 
Q 4550 1131 3912 565 
Q 3275 0 1925 0 
L 628 0 
L 628 4666 
z
" transform="scale(0.015625)"/>
       <path id="DejaVuSans-73" d="M 2834 3397 
L 2834 2853 
Q 2591 2978 2328 3040 
Q 2066 3103 1784 3103 
Q 1356 3103 1142 2972 
Q 928 2841 928 2578 
Q 928 2378 1081 2264 
Q 1234 2150 1697 2047 
L 1894 2003 
Q 2506 1872 2764 1633 
Q 3022 1394 3022 966 
Q 3022 478 2636 193 
Q 2250 -91 1575 -91 
Q 1294 -91 989 -36 
Q 684 19 347 128 
L 347 722 
Q 666 556 975 473 
Q 1284 391 1588 391 
Q 1994 391 2212 530 
Q 2431 669 2431 922 
Q 2431 1156 2273 1281 
Q 2116 1406 1581 1522 
L 1381 1569 
Q 847 1681 609 1914 
Q 372 2147 372 2553 
Q 372 3047 722 3315 
Q 1072 3584 1716 3584 
Q 2034 3584 2315 3537 
Q 2597 3491 2834 3397 
z
" transform="scale(0.015625)"/>
       <path id="DejaVuSans-69" d="M 603 3500 
L 1178 3500 
L 1178 0 
L 603 0 
L 603 3500 
z
M 603 4863 
L 1178 4863 
L 1178 4134 
L 603 4134 
L 603 4863 
z
" transform="scale(0.015625)"/>
       <path id="DejaVuSans-74" d="M 1172 4494 
L 1172 3500 
L 2356 3500 
L 2356 3053 
L 1172 3053 
L 1172 1153 
Q 1172 725 1289 603 
Q 1406 481 1766 481 
L 2356 481 
L 2356 0 
L 1766 0 
Q 1100 0 847 248 
Q 594 497 594 1153 
L 594 3053 
L 172 3053 
L 172 3500 
L 594 3500 
L 594 4494 
L 1172 4494 
z
" transform="scale(0.015625)"/>
       <path id="DejaVuSans-79" d="M 2059 -325 
Q 1816 -950 1584 -1140 
Q 1353 -1331 966 -1331 
L 506 -1331 
L 506 -850 
L 844 -850 
Q 1081 -850 1212 -737 
Q 1344 -625 1503 -206 
L 1606 56 
L 191 3500 
L 800 3500 
L 1894 763 
L 2988 3500 
L 3597 3500 
L 2059 -325 
z
" transform="scale(0.015625)"/>
      </defs>
      <use xlink:href="#DejaVuSans-44"/>
      <use xlink:href="#DejaVuSans-65" transform="translate(77.001953 0)"/>
      <use xlink:href="#DejaVuSans-6e" transform="translate(138.525391 0)"/>
      <use xlink:href="#DejaVuSans-73" transform="translate(201.904297 0)"/>
      <use xlink:href="#DejaVuSans-69" transform="translate(254.003906 0)"/>
      <use xlink:href="#DejaVuSans-74" transform="translate(281.787109 0)"/>
      <use xlink:href="#DejaVuSans-79" transform="translate(320.996094 0)"/>
     </g>
    </g>
   </g>
   <g id="line2d_31">
    <path d="M 86.805682 318.397767 
L 95.963745 318.304044 
L 100.542776 318.091135 
L 105.121808 317.7153 
L 109.700839 317.157166 
L 111.990355 316.725307 
L 114.279871 316.084762 
L 116.569387 315.139216 
L 118.858902 313.822739 
L 121.148418 312.137113 
L 123.437934 310.164648 
L 130.306481 303.886035 
L 134.885513 300.11967 
L 141.75406 294.511825 
L 146.333092 290.411967 
L 148.622607 288.071573 
L 150.912123 285.409054 
L 153.201639 282.361764 
L 155.491155 278.894392 
L 157.78067 274.937446 
L 160.070186 270.321176 
L 162.359702 264.783512 
L 164.649218 258.078668 
L 166.938733 250.109855 
L 169.228249 240.961018 
L 171.517765 230.783417 
L 173.807281 219.63864 
L 176.096796 207.451764 
L 178.386312 194.118575 
L 180.675828 179.657198 
L 185.25486 148.276897 
L 189.833891 116.064298 
L 192.123407 100.777766 
L 194.412923 86.818862 
L 196.702438 74.83783 
L 198.991954 65.393645 
L 201.28147 58.808023 
L 203.570986 55.069632 
L 205.860501 53.84131 
L 208.150017 54.578184 
L 210.439533 56.701986 
L 212.729049 59.749402 
L 215.018564 63.449325 
L 217.30808 67.739479 
L 219.597596 72.742105 
L 221.887112 78.688404 
L 224.176627 85.779801 
L 226.466143 94.029234 
L 228.755659 103.181564 
L 237.913722 141.14796 
L 242.492754 159.260894 
L 244.782269 167.803096 
L 247.071785 175.698576 
L 251.650817 189.829011 
L 256.229848 203.896741 
L 263.098395 225.744959 
L 265.387911 232.327712 
L 267.677427 238.399226 
L 269.966943 244.01037 
L 272.256458 249.209213 
L 274.545974 254.024798 
L 276.83549 258.498056 
L 281.414521 266.665774 
L 283.704037 270.415096 
L 285.993553 273.891801 
L 288.283069 277.034715 
L 290.572585 279.808794 
L 292.8621 282.218219 
L 295.151616 284.303963 
L 297.441132 286.133143 
L 302.020163 289.289476 
L 306.599195 292.03935 
L 313.467742 296.106538 
L 320.336289 300.453706 
L 324.915321 303.005321 
L 327.204837 304.078042 
L 329.494352 304.989038 
L 331.783868 305.737237 
L 334.073384 306.339338 
L 338.652415 307.218693 
L 345.520963 308.344457 
L 350.099994 309.426718 
L 354.679026 310.619267 
L 359.258057 311.564644 
L 366.126605 312.547237 
L 377.574183 313.947105 
L 384.442731 314.557299 
L 389.021762 314.741225 
L 395.89031 314.977193 
L 407.337888 315.839106 
L 414.206436 315.864178 
L 418.785467 316.157088 
L 425.654014 316.768417 
L 430.233046 317.000738 
L 441.680625 317.359827 
L 448.549172 317.616313 
L 519.524161 318.173701 
L 542.419318 318.398877 
L 542.419318 318.398877 
" clip-path="url(#p68b4fa2f51)" style="fill: none; stroke: #d17a3f; stroke-width: 1.6; stroke-linecap: square"/>
   </g>
   <g id="patch_123">
    <path d="M 64.025 318.4 
L 64.025 25.8 
" style="fill: none; stroke: #ffffff; stroke-width: 0.8; stroke-linejoin: miter; stroke-linecap: square"/>
   </g>
   <g id="patch_124">
    <path d="M 64.025 318.4 
L 565.2 318.4 
" style="fill: none; stroke: #ffffff; stroke-width: 0.8; stroke-linejoin: miter; stroke-linecap: square"/>
   </g>
   <g id="text_18">
    <!-- Distribution of PaO2 100%mean -->
    <g style="fill: #ffffff" transform="translate(218.371562 19.8) scale(0.12 -0.12)">
     <defs>
      <path id="DejaVuSans-72" d="M 2631 2963 
Q 2534 3019 2420 3045 
Q 2306 3072 2169 3072 
Q 1681 3072 1420 2755 
Q 1159 2438 1159 1844 
L 1159 0 
L 581 0 
L 581 3500 
L 1159 3500 
L 1159 2956 
Q 1341 3275 1631 3429 
Q 1922 3584 2338 3584 
Q 2397 3584 2469 3576 
Q 2541 3569 2628 3553 
L 2631 2963 
z
" transform="scale(0.015625)"/>
      <path id="DejaVuSans-62" d="M 3116 1747 
Q 3116 2381 2855 2742 
Q 2594 3103 2138 3103 
Q 1681 3103 1420 2742 
Q 1159 2381 1159 1747 
Q 1159 1113 1420 752 
Q 1681 391 2138 391 
Q 2594 391 2855 752 
Q 3116 1113 3116 1747 
z
M 1159 2969 
Q 1341 3281 1617 3432 
Q 1894 3584 2278 3584 
Q 2916 3584 3314 3078 
Q 3713 2572 3713 1747 
Q 3713 922 3314 415 
Q 2916 -91 2278 -91 
Q 1894 -91 1617 61 
Q 1341 213 1159 525 
L 1159 0 
L 581 0 
L 581 4863 
L 1159 4863 
L 1159 2969 
z
" transform="scale(0.015625)"/>
      <path id="DejaVuSans-75" d="M 544 1381 
L 544 3500 
L 1119 3500 
L 1119 1403 
Q 1119 906 1312 657 
Q 1506 409 1894 409 
Q 2359 409 2629 706 
Q 2900 1003 2900 1516 
L 2900 3500 
L 3475 3500 
L 3475 0 
L 2900 0 
L 2900 538 
Q 2691 219 2414 64 
Q 2138 -91 1772 -91 
Q 1169 -91 856 284 
Q 544 659 544 1381 
z
M 1991 3584 
L 1991 3584 
z
" transform="scale(0.015625)"/>
      <path id="DejaVuSans-6f" d="M 1959 3097 
Q 1497 3097 1228 2736 
Q 959 2375 959 1747 
Q 959 1119 1226 758 
Q 1494 397 1959 397 
Q 2419 397 2687 759 
Q 2956 1122 2956 1747 
Q 2956 2369 2687 2733 
Q 2419 3097 1959 3097 
z
M 1959 3584 
Q 2709 3584 3137 3096 
Q 3566 2609 3566 1747 
Q 3566 888 3137 398 
Q 2709 -91 1959 -91 
Q 1206 -91 779 398 
Q 353 888 353 1747 
Q 353 2609 779 3096 
Q 1206 3584 1959 3584 
z
" transform="scale(0.015625)"/>
      <path id="DejaVuSans-20" transform="scale(0.015625)"/>
      <path id="DejaVuSans-66" d="M 2375 4863 
L 2375 4384 
L 1825 4384 
Q 1516 4384 1395 4259 
Q 1275 4134 1275 3809 
L 1275 3500 
L 2222 3500 
L 2222 3053 
L 1275 3053 
L 1275 0 
L 697 0 
L 697 3053 
L 147 3053 
L 147 3500 
L 697 3500 
L 697 3744 
Q 697 4328 969 4595 
Q 1241 4863 1831 4863 
L 2375 4863 
z
" transform="scale(0.015625)"/>
     </defs>
     <use xlink:href="#DejaVuSans-44"/>
     <use xlink:href="#DejaVuSans-69" transform="translate(77.001953 0)"/>
     <use xlink:href="#DejaVuSans-73" transform="translate(104.785156 0)"/>
     <use xlink:href="#DejaVuSans-74" transform="translate(156.884766 0)"/>
     <use xlink:href="#DejaVuSans-72" transform="translate(196.09375 0)"/>
     <use xlink:href="#DejaVuSans-69" transform="translate(237.207031 0)"/>
     <use xlink:href="#DejaVuSans-62" transform="translate(264.990234 0)"/>
     <use xlink:href="#DejaVuSans-75" transform="translate(328.466797 0)"/>
     <use xlink:href="#DejaVuSans-74" transform="translate(391.845703 0)"/>
     <use xlink:href="#DejaVuSans-69" transform="translate(431.054688 0)"/>
     <use xlink:href="#DejaVuSans-6f" transform="translate(458.837891 0)"/>
     <use xlink:href="#DejaVuSans-6e" transform="translate(520.019531 0)"/>
     <use xlink:href="#DejaVuSans-20" transform="translate(583.398438 0)"/>
     <use xlink:href="#DejaVuSans-6f" transform="translate(615.185547 0)"/>
     <use xlink:href="#DejaVuSans-66" transform="translate(676.367188 0)"/>
     <use xlink:href="#DejaVuSans-20" transform="translate(711.572266 0)"/>
     <use xlink:href="#DejaVuSans-50" transform="translate(743.359375 0)"/>
     <use xlink:href="#DejaVuSans-61" transform="translate(799.162109 0)"/>
     <use xlink:href="#DejaVuSans-4f" transform="translate(860.441406 0)"/>
     <use xlink:href="#DejaVuSans-32" transform="translate(939.152344 0)"/>
     <use xlink:href="#DejaVuSans-20" transform="translate(1002.775391 0)"/>
     <use xlink:href="#DejaVuSans-31" transform="translate(1034.5625 0)"/>
     <use xlink:href="#DejaVuSans-30" transform="translate(1098.185547 0)"/>
     <use xlink:href="#DejaVuSans-30" transform="translate(1161.808594 0)"/>
     <use xlink:href="#DejaVuSans-25" transform="translate(1225.431641 0)"/>
     <use xlink:href="#DejaVuSans-6d" transform="translate(1320.451172 0)"/>
     <use xlink:href="#DejaVuSans-65" transform="translate(1417.863281 0)"/>
     <use xlink:href="#DejaVuSans-61" transform="translate(1479.386719 0)"/>
     <use xlink:href="#DejaVuSans-6e" transform="translate(1540.666016 0)"/>
    </g>
   </g>
   <g id="legend_1">
    <g id="patch_125">
     <path d="M 511.057969 60.388438 
L 558.9 60.388438 
Q 560.7 60.388438 560.7 58.588437 
L 560.7 32.1 
Q 560.7 30.3 558.9 30.3 
L 511.057969 30.3 
Q 509.257969 30.3 509.257969 32.1 
L 509.257969 58.588437 
Q 509.257969 60.388438 511.057969 60.388438 
z
" style="opacity: 0.8; stroke: #cccccc; stroke-linejoin: miter"/>
    </g>
    <g id="text_19">
     <!-- Dataset -->
     <g style="fill: #ffffff" transform="translate(515.399297 41.498438) scale(0.1 -0.1)">
      <use xlink:href="#DejaVuSans-44"/>
      <use xlink:href="#DejaVuSans-61" transform="translate(77.001953 0)"/>
      <use xlink:href="#DejaVuSans-74" transform="translate(138.28125 0)"/>
      <use xlink:href="#DejaVuSans-61" transform="translate(177.490234 0)"/>
      <use xlink:href="#DejaVuSans-73" transform="translate(238.769531 0)"/>
      <use xlink:href="#DejaVuSans-65" transform="translate(290.869141 0)"/>
      <use xlink:href="#DejaVuSans-74" transform="translate(352.392578 0)"/>
     </g>
    </g>
    <g id="patch_126">
     <path d="M 512.857969 54.916719 
L 530.857969 54.916719 
L 530.857969 48.616719 
L 512.857969 48.616719 
z
" style="fill: #d17a3f; fill-opacity: 0.4; stroke: #ffffff; stroke-width: 0.338182; stroke-linejoin: miter"/>
    </g>
    <g id="text_20">
     <!-- EUH -->
     <g style="fill: #ffffff" transform="translate(538.057969 54.916719) scale(0.09 -0.09)">
      <defs>
       <path id="DejaVuSans-45" d="M 628 4666 
L 3578 4666 
L 3578 4134 
L 1259 4134 
L 1259 2753 
L 3481 2753 
L 3481 2222 
L 1259 2222 
L 1259 531 
L 3634 531 
L 3634 0 
L 628 0 
L 628 4666 
z
" transform="scale(0.015625)"/>
       <path id="DejaVuSans-55" d="M 556 4666 
L 1191 4666 
L 1191 1831 
Q 1191 1081 1462 751 
Q 1734 422 2344 422 
Q 2950 422 3222 751 
Q 3494 1081 3494 1831 
L 3494 4666 
L 4128 4666 
L 4128 1753 
Q 4128 841 3676 375 
Q 3225 -91 2344 -91 
Q 1459 -91 1007 375 
Q 556 841 556 1753 
L 556 4666 
z
" transform="scale(0.015625)"/>
       <path id="DejaVuSans-48" d="M 628 4666 
L 1259 4666 
L 1259 2753 
L 3553 2753 
L 3553 4666 
L 4184 4666 
L 4184 0 
L 3553 0 
L 3553 2222 
L 1259 2222 
L 1259 0 
L 628 0 
L 628 4666 
z
" transform="scale(0.015625)"/>
      </defs>
      <use xlink:href="#DejaVuSans-45"/>
      <use xlink:href="#DejaVuSans-55" transform="translate(63.183594 0)"/>
      <use xlink:href="#DejaVuSans-48" transform="translate(136.376953 0)"/>
     </g>
    </g>
   </g>
  </g>
 </g>
 <defs>
  <clipPath id="p68b4fa2f51">
   <rect x="64.025" y="25.8" width="501.175" height="292.6"/>
  </clipPath>
 </defs>
</svg>
